<svg width="274" height="205" viewBox="0 0 274 205" fill="none" xmlns="http://www.w3.org/2000/svg">
<mask id="mask0_74_4" style="mask-type:luminance" maskUnits="userSpaceOnUse" x="127" y="29" width="12" height="12">
<path d="M127.083 29.0737H138.983V40.93H127.083V29.0737Z" fill="white"/>
</mask>
<g mask="url(#mask0_74_4)">
<path d="M132.703 40.2577C135.632 40.2577 138.002 37.7181 138.002 34.591C138.002 33.6249 137.779 32.7187 137.379 31.9219C137.379 31.9568 137.384 31.9867 137.384 32.0215C137.384 34.1428 135.771 35.8657 133.786 35.8657C131.806 35.8657 130.193 34.1428 130.193 32.0215C130.193 30.8414 130.695 29.7807 131.48 29.0786C129.142 29.6662 127.404 31.912 127.404 34.591C127.404 37.7181 129.779 40.2577 132.703 40.2577Z" fill="#222221"/>
</g>
<path d="M152.202 124.565C151.925 124.56 151.695 124.796 151.69 125.093C151.685 125.39 151.906 125.636 152.184 125.642C152.466 125.647 152.691 125.41 152.696 125.113C152.701 124.817 152.48 124.57 152.202 124.565Z" fill="#222221"/>
<path d="M157.232 121.335C156.952 121.321 156.724 121.798 156.72 122.39C156.714 122.99 156.936 123.481 157.215 123.488C157.491 123.502 157.72 123.026 157.726 122.433C157.73 121.834 157.511 121.343 157.232 121.335Z" fill="#222221"/>
<mask id="mask1_74_4" style="mask-type:luminance" maskUnits="userSpaceOnUse" x="158" y="118" width="3" height="4">
<path d="M158.023 118.69H160.64V121.24H158.023V118.69Z" fill="white"/>
</mask>
<g mask="url(#mask1_74_4)">
<path d="M159.803 119.278C159.343 119.273 158.967 119.662 158.957 120.15C158.953 120.643 159.315 121.046 159.775 121.056C160.231 121.066 160.612 120.672 160.617 120.184C160.626 119.691 160.264 119.288 159.803 119.278Z" fill="#222221"/>
</g>
<path d="M157.739 117.029C157.186 117.015 156.727 117.494 156.72 118.088C156.708 118.682 157.154 119.175 157.708 119.181C158.261 119.195 158.72 118.722 158.732 118.122C158.739 117.528 158.298 117.035 157.739 117.029Z" fill="#222221"/>
<path d="M154.1 117.195C154.491 117.2 154.81 116.873 154.82 116.462C154.824 116.051 154.514 115.714 154.124 115.709C153.776 115.699 153.484 115.957 153.419 116.298C153.042 115.095 152.647 113.897 152.238 112.699C152.356 112.53 152.431 112.327 152.436 112.1C152.445 111.604 152.116 111.184 151.674 111.075C151.044 109.277 150.395 107.495 149.751 105.712C148.937 103.479 148.11 101.246 147.466 98.9536C146.854 96.7651 146.422 94.527 146.083 92.2791C145.397 87.7782 145.053 83.2229 144.212 78.7518C144.09 78.1032 143.958 77.4545 143.812 76.8108C143.676 76.2216 143.572 75.5878 143.365 75.0234C143.253 74.7114 143.083 74.4193 142.923 74.1321C142.152 72.7606 141.113 71.4237 139.731 70.7057C139.444 68.7252 139.364 66.6901 138.983 64.7442C138.814 63.9025 138.588 63.0756 138.268 62.2834C137.906 61.3772 137.398 60.5652 136.862 59.7581C135.786 58.1539 134.873 56.4852 134.196 54.6483C133.435 52.5984 132.931 50.4495 132.546 48.2906C132.532 48.1966 132.424 48.1173 132.334 48.1223C131.624 48.157 130.952 48.5184 130.51 49.1076C129.964 49.8305 129.927 50.801 129.903 51.6873C129.837 53.8956 130.317 56.0842 130.961 58.1737C131.036 58.4262 131.116 58.6738 131.201 58.9263C128.982 57.4062 126.268 56.9309 123.946 55.6534C123.837 55.4454 123.631 55.2969 123.386 55.292C123.372 55.292 123.363 55.2969 123.348 55.2969C123.019 55.0889 122.7 54.8612 122.394 54.6037C122.305 54.5294 122.173 54.5047 122.084 54.6037C121.331 55.4355 121.077 56.6734 121.444 57.7578C121.877 59.0303 123.033 59.6492 124.096 60.2582C126.598 61.704 129.4 62.8429 131.163 65.3334C131.253 65.4622 131.337 65.5959 131.427 65.7295C128.051 65.1948 124.717 64.4174 121.444 63.4073C121.609 63.2588 121.712 63.0409 121.717 62.7934C121.726 62.3378 121.378 61.9615 120.946 61.9516C120.508 61.9467 120.151 62.3081 120.142 62.7686C120.142 62.8924 120.17 63.0112 120.212 63.1152C120.165 63.1598 120.132 63.2291 120.123 63.2984C119.958 64.6501 120.433 65.9177 121.294 66.8139C121.289 66.8436 121.284 66.8733 121.28 66.903C121.275 67.2298 121.524 67.5022 121.839 67.5121C121.924 67.5121 121.999 67.4923 122.074 67.4625C122.408 67.6755 122.775 67.8488 123.165 67.9676C124.449 68.3489 125.761 68.6113 127.026 69.0718C128.319 69.5421 129.457 70.2898 130.543 71.1514C131.587 71.9733 132.993 72.8893 133.312 74.3153C133.336 74.4242 133.392 74.6174 133.472 74.6223C133.373 75.1868 133.256 75.7364 133.119 76.2761C132.466 75.8602 131.384 75.7809 130.67 75.7265C129.673 75.6522 128.676 75.5779 127.684 75.5037C125.69 75.3551 123.696 75.2066 121.703 75.058C121.562 75.0481 121.453 75.2115 121.491 75.3502C122.027 77.1871 123.428 78.6676 125.182 79.2222C127.256 79.8807 129.438 80.0738 131.281 81.3513C131.093 81.7573 130.891 82.1584 130.684 82.5545C130.204 83.4507 129.701 84.3568 129.113 85.1787C129 85.3372 128.873 85.4808 128.746 85.6343C128.662 85.7382 128.455 86.0898 128.309 86.1839C128.337 86.1393 128.098 86.0997 128.178 86.1195C128.041 86.0848 127.886 86.0799 127.75 86.0452C127.547 86.0007 127.35 85.9413 127.157 85.867C126.706 85.6937 126.283 85.4461 125.892 85.1589C125.079 84.5648 124.491 83.7775 123.823 83.0249C123.132 82.2425 122.37 81.5345 121.651 80.7819C121.684 80.7076 121.707 80.6234 121.707 80.5393C121.712 80.2224 121.472 79.9599 121.171 79.955C121.091 79.95 121.011 79.9698 120.941 80.0045C120.4 79.3608 119.883 78.7023 119.187 78.222C117.654 77.1574 115.853 77.3357 114.532 78.6825C114.485 78.7369 114.447 78.836 114.476 78.9053C115.924 82.5297 118.397 85.5105 120.809 88.4566C122.206 90.1599 123.598 91.8632 124.994 93.5664C126.01 94.8093 127.002 96.0818 128.116 97.2256C127.905 97.2998 127.75 97.5078 127.745 97.7554C127.74 98.0673 127.975 98.3248 128.276 98.3297C128.53 98.3347 128.746 98.1515 128.803 97.8989C128.878 97.9732 128.953 98.0475 129.033 98.1168C130.355 99.3002 131.85 100.241 133.256 101.315C134.761 102.464 136.035 103.791 136.952 105.504C137.892 107.252 138.518 109.173 139.19 111.05C139.9 113.045 140.591 115.051 141.146 117.106C141.776 119.448 142.199 121.829 142.34 124.265C142.486 126.776 142.401 129.291 142.312 131.801C142.303 132.093 142.74 132.093 142.749 131.801C142.905 127.38 142.966 122.988 141.983 118.66C141.517 116.61 140.887 114.61 140.21 112.629C139.552 110.723 138.898 108.792 138.113 106.935C137.389 105.207 136.458 103.608 135.127 102.321C133.853 101.083 132.367 100.127 130.952 99.0823C129.344 97.894 127.98 96.4927 126.692 94.938C125.864 93.9378 125.041 92.9327 124.223 91.9275C124.604 91.9028 124.91 91.576 124.914 91.165C124.924 90.7392 124.599 90.3827 124.19 90.3777C123.833 90.3678 123.527 90.6303 123.452 90.9868C123.17 90.6352 122.883 90.2886 122.596 89.9371C119.794 86.5107 116.667 83.114 114.95 78.9053C115.543 78.3359 116.272 77.9497 117.09 77.9546C117.955 77.9596 118.769 78.3903 119.417 78.9697C119.874 79.3707 120.259 79.851 120.654 80.3263C120.631 80.3858 120.617 80.4501 120.617 80.5145C120.612 80.8314 120.852 81.0938 121.153 81.0988C121.209 81.0988 121.261 81.0889 121.312 81.074C121.317 81.0839 121.322 81.0889 121.331 81.0938C122.055 81.8514 122.822 82.5594 123.518 83.3467C124.12 84.03 124.66 84.743 125.366 85.3174C126.038 85.8571 126.8 86.2978 127.632 86.4859C127.886 86.5453 128.361 86.6939 128.587 86.5255C128.742 86.4067 128.883 86.169 129.01 86.0205C129.414 85.5303 129.757 85.0203 130.091 84.4756C130.674 83.5299 131.21 82.5446 131.69 81.5295L131.817 81.2572C132.95 78.7914 133.75 76.1473 134.102 73.434C134.351 71.5128 134.375 69.5669 134.13 67.6457C133.853 65.4919 133.209 63.4321 132.508 61.3971C131.704 59.0649 130.848 56.7279 130.496 54.2621C130.312 52.9895 130.242 51.6428 130.449 50.3702C130.604 49.4493 131.286 48.7313 132.165 48.6026C132.842 52.3459 133.919 56.0594 135.983 59.2333C136.529 60.075 137.121 60.8871 137.572 61.7932C137.972 62.6003 138.249 63.4667 138.452 64.3481C138.861 66.1207 138.969 67.9478 139.181 69.76C139.223 70.1165 139.27 70.478 139.326 70.8394C139.317 70.879 139.326 70.9186 139.345 70.9583C139.575 72.4882 139.938 73.9885 140.648 75.365C140.779 75.6225 141.155 75.3947 141.024 75.1323C140.394 73.9142 140.05 72.612 139.825 71.2751C140.93 71.9584 141.785 73.0478 142.448 74.1866C142.627 74.4936 142.825 74.8204 142.956 75.1571C143.064 75.4541 143.121 75.7908 143.196 76.1028C143.332 76.6524 143.455 77.202 143.572 77.7566C144.494 82.1683 144.861 86.6741 145.477 91.1303C145.792 93.3783 146.168 95.6213 146.718 97.8247C147.268 100.043 148.016 102.202 148.792 104.346C149.6 106.589 150.423 108.827 151.213 111.075C150.79 111.189 150.47 111.58 150.466 112.06C150.456 112.634 150.889 113.105 151.434 113.115C151.594 113.12 151.749 113.075 151.886 113.006C152.342 114.348 152.784 115.694 153.202 117.056C154.688 121.874 155.864 126.82 156.282 131.881C156.31 132.173 156.743 132.178 156.719 131.881C156.296 126.781 155.125 121.844 153.64 116.997C153.762 117.115 153.922 117.19 154.1 117.195ZM131.474 80.9354C129.795 79.7767 127.778 79.4153 125.85 78.93C124.101 78.4894 122.648 77.3208 122.018 75.5433C123.809 75.677 125.605 75.8106 127.397 75.9443C128.323 76.0137 129.25 76.083 130.171 76.1523C130.999 76.2117 132.287 76.2117 132.997 76.7415C132.612 78.1725 132.104 79.5539 131.474 80.9354ZM133.613 73.7855C133.265 72.8596 132.513 72.1813 131.77 71.5722C130.764 70.7453 129.748 69.9036 128.61 69.2847C127.444 68.6509 126.17 68.2944 124.905 67.9676C124.049 67.7448 123.146 67.5764 122.375 67.1358C122.399 67.0664 122.417 66.9971 122.417 66.9228C122.422 66.596 122.173 66.3237 121.858 66.3188C121.731 66.3138 121.613 66.3584 121.519 66.4327C120.842 65.6701 120.49 64.6452 120.537 63.6004C124.077 64.7343 127.684 65.6008 131.342 66.1752L131.77 66.2891C132.546 67.5616 132.931 68.7054 133.467 70.1017C133.482 70.1363 133.5 70.171 133.519 70.2007L133.862 70.7651C133.844 71.7802 133.759 72.7903 133.613 73.7855ZM131.422 59.5848C131.982 61.2535 132.593 62.8973 133.058 64.5957C133.533 66.3287 133.811 68.0963 133.858 69.8937C133.336 68.542 132.804 67.1853 132.08 65.9425C131.37 64.7294 130.467 63.7044 129.377 62.8627C128.286 62.0259 127.082 61.3772 125.883 60.7336C125.276 60.4018 124.665 60.075 124.068 59.7235C123.518 59.3967 122.902 59.0699 122.45 58.5995C121.548 57.6538 121.482 56.104 122.276 55.079C122.479 55.2375 122.685 55.3811 122.897 55.5247C122.794 55.6435 122.728 55.797 122.723 55.9703C122.718 56.3516 123.005 56.6635 123.367 56.6684C123.668 56.6734 123.922 56.4605 124.002 56.1684C126.386 57.3963 129.113 57.9014 131.304 59.5502C131.342 59.5799 131.384 59.5848 131.422 59.5848Z" fill="#0DC9FD"/>
<path d="M156.21 109.492C156.488 109.498 156.717 109.261 156.72 108.963C156.726 108.664 156.506 108.418 156.228 108.415C155.949 108.409 155.72 108.645 155.714 108.944C155.709 109.243 155.932 109.488 156.21 109.492Z" fill="#222221"/>
<path d="M155.714 106.79C155.708 107.087 155.931 107.332 156.208 107.338C156.485 107.342 156.714 107.106 156.72 106.81C156.726 106.513 156.503 106.268 156.226 106.262C155.949 106.259 155.72 106.494 155.714 106.79Z" fill="#222221"/>
<path d="M150.172 106.262C150.45 106.273 150.679 105.799 150.684 105.207C150.687 104.611 150.466 104.12 150.19 104.109C149.912 104.097 149.683 104.572 149.678 105.168C149.673 105.76 149.894 106.256 150.172 106.262Z" fill="#222221"/>
<path d="M152.186 103.032C152.463 103.037 152.691 102.8 152.696 102.504C152.701 102.208 152.479 101.96 152.201 101.955C151.923 101.955 151.695 102.187 151.69 102.483C151.68 102.779 151.903 103.026 152.186 103.032Z" fill="#222221"/>
<path d="M154.708 97.6298C154.703 98.2243 154.924 98.7125 155.201 98.725C155.478 98.7313 155.708 98.2619 155.714 97.6673C155.717 97.0727 155.496 96.5783 155.219 96.572C154.942 96.5595 154.714 97.0352 154.708 97.6298Z" fill="#222221"/>
<path d="M149.678 86.3545C149.683 86.0524 149.463 85.8053 149.188 85.8053C148.907 85.7998 148.677 86.0359 148.672 86.3325C148.672 86.6346 148.891 86.8762 149.167 86.8817C149.448 86.8872 149.673 86.6511 149.678 86.3545Z" fill="#222221"/>
<path d="M158.239 80.4219C157.961 80.4177 157.735 80.656 157.727 80.9496C157.723 81.2474 157.945 81.4942 158.224 81.4985C158.502 81.5027 158.728 81.2687 158.732 80.9708C158.74 80.673 158.518 80.4304 158.239 80.4219Z" fill="#222221"/>
<path d="M151.69 76.1013C151.687 76.6948 151.909 77.1847 152.185 77.1916C152.461 77.2054 152.689 76.7293 152.696 76.1358C152.702 75.5424 152.481 75.0524 152.201 75.0386C151.925 75.0317 151.696 75.501 151.69 76.1013Z" fill="#222221"/>
<path d="M155.203 73.9617C155.48 73.9741 155.709 73.4977 155.714 72.9037C155.717 72.3098 155.497 71.821 155.22 71.8087C154.94 71.8025 154.711 72.2727 154.708 72.8666C154.703 73.4605 154.925 73.9493 155.203 73.9617Z" fill="#222221"/>
<path d="M155.202 70.7317C155.481 70.7413 155.705 70.499 155.714 70.2081C155.723 69.9076 155.499 69.6556 155.22 69.6556C154.942 69.6459 154.717 69.8882 154.708 70.1888C154.708 70.4796 154.924 70.7317 155.202 70.7317Z" fill="#222221"/>
<path d="M142.125 71.8085C142.402 71.8137 142.631 71.5786 142.635 71.2807C142.64 70.9829 142.422 70.7372 142.145 70.732C141.868 70.7268 141.634 70.9619 141.629 71.2598C141.629 71.5577 141.848 71.8033 142.125 71.8085Z" fill="#222221"/>
<path d="M151.669 65.3485C152.226 65.3587 152.686 64.886 152.696 64.29C152.706 63.699 152.264 63.2058 151.707 63.1955C151.15 63.1852 150.694 63.6579 150.684 64.254C150.67 64.85 151.117 65.3382 151.669 65.3485Z" fill="#222221"/>
<path d="M142.635 64.8218C142.638 64.524 142.419 64.2786 142.142 64.2721C141.864 64.2656 141.636 64.5044 141.63 64.8021C141.623 65.0999 141.846 65.3452 142.123 65.3485C142.401 65.355 142.629 65.1162 142.635 64.8218Z" fill="#222221"/>
<path d="M143.642 61.5705C143.634 61.8684 143.857 62.1146 144.135 62.1186C144.414 62.1226 144.644 61.8882 144.647 61.5903C144.655 61.2924 144.432 61.0462 144.154 61.0422C143.876 61.0342 143.645 61.2726 143.642 61.5705Z" fill="#222221"/>
<path d="M144.136 61.0419C144.414 61.0494 144.644 60.5784 144.648 59.9804C144.651 59.3899 144.432 58.8965 144.153 58.889C143.875 58.8741 143.645 59.3525 143.642 59.943C143.638 60.5411 143.857 61.0344 144.136 61.0419Z" fill="#222221"/>
<path d="M148.16 56.7352C148.439 56.7415 148.672 56.4988 148.672 56.2064C148.678 55.9077 148.457 55.6588 148.178 55.6588C147.898 55.6526 147.672 55.889 147.666 56.1877C147.66 56.4864 147.881 56.729 148.16 56.7352Z" fill="#222221"/>
<path d="M145.654 55.1069C145.648 55.4096 145.874 55.6518 146.151 55.6586C146.427 55.6653 146.66 55.4231 146.66 55.1271C146.666 54.8311 146.446 54.5889 146.169 54.5822C145.887 54.5754 145.66 54.8109 145.654 55.1069Z" fill="#222221"/>
<path d="M142.142 53.5054C141.862 53.5015 141.633 53.7356 141.629 54.0359C141.626 54.3323 141.847 54.5781 142.123 54.582C142.399 54.5859 142.628 54.3518 142.635 54.0554C142.639 53.7551 142.418 53.5093 142.142 53.5054Z" fill="#222221"/>
<path d="M149.664 50.2754C150.219 50.2784 150.672 50.0449 150.684 49.7477C150.695 49.4505 150.253 49.2048 149.698 49.1988C149.142 49.1957 148.683 49.4323 148.672 49.7264C148.666 50.0236 149.108 50.2693 149.664 50.2754Z" fill="#222221"/>
<path d="M144.628 50.2752C145.185 50.2858 145.644 49.8108 145.654 49.2198C145.663 48.6235 145.22 48.1328 144.667 48.1222C144.11 48.1117 143.652 48.5866 143.642 49.1776C143.632 49.7739 144.076 50.2647 144.628 50.2752Z" fill="#222221"/>
<path d="M151.624 125.421C151.618 125.717 151.842 125.963 152.118 125.969C152.395 125.975 152.624 125.736 152.63 125.44C152.636 125.144 152.413 124.899 152.136 124.893C151.86 124.893 151.63 125.126 151.624 125.421Z" fill="#222221"/>
<path d="M142.125 45.9685C142.403 45.9815 142.629 45.5081 142.635 44.9114C142.638 44.3213 142.418 43.8285 142.14 43.8155C141.862 43.809 141.635 44.2824 141.629 44.879C141.626 45.4692 141.847 45.962 142.125 45.9685Z" fill="#222221"/>
<path d="M141.113 43.8152C141.389 43.8244 141.621 43.5832 141.629 43.2864C141.629 42.9895 141.406 42.7483 141.131 42.739C140.855 42.7298 140.632 42.971 140.623 43.2678C140.623 43.5647 140.838 43.8152 141.113 43.8152Z" fill="#222221"/>
<path d="M143.13 38.4319C143.411 38.441 143.641 38.2039 143.641 37.9029C143.65 37.602 143.428 37.3648 143.147 37.3557C142.866 37.3466 142.636 37.5837 142.636 37.8847C142.627 38.1856 142.849 38.4319 143.13 38.4319Z" fill="#222221"/>
<path d="M140.13 142.868C139.852 142.864 139.625 143.103 139.617 143.398C139.613 143.697 139.835 143.94 140.114 143.945C140.389 143.953 140.619 143.715 140.623 143.415C140.627 143.12 140.409 142.873 140.13 142.868Z" fill="#222221"/>
<path d="M144.648 141.806C144.653 141.214 144.431 140.721 144.153 140.715C143.877 140.703 143.647 141.174 143.642 141.771C143.639 142.363 143.858 142.857 144.136 142.868C144.412 142.874 144.642 142.404 144.648 141.806Z" fill="#222221"/>
<path d="M135.593 139.657C135.598 139.061 135.375 138.572 135.097 138.562C134.82 138.551 134.592 139.023 134.587 139.619C134.582 140.215 134.802 140.704 135.08 140.715C135.358 140.725 135.588 140.253 135.593 139.657Z" fill="#222221"/>
<path d="M145.143 134.255C145.418 134.26 145.649 134.024 145.654 133.724C145.659 133.43 145.438 133.184 145.158 133.178C144.883 133.173 144.653 133.409 144.648 133.709C144.643 134.003 144.864 134.25 145.143 134.255Z" fill="#222221"/>
<path d="M135.61 132.102C135.056 132.092 134.597 132.564 134.587 133.158C134.578 133.752 135.018 134.245 135.576 134.255C136.13 134.265 136.589 133.793 136.599 133.199C136.608 132.604 136.163 132.112 135.61 132.102Z" fill="#222221"/>
<path d="M138.116 129.948C137.838 129.941 137.612 130.414 137.605 131.011C137.602 131.601 137.822 132.094 138.1 132.101C138.375 132.115 138.605 131.643 138.611 131.046C138.614 130.455 138.395 129.962 138.116 129.948Z" fill="#222221"/>
<path d="M139.107 128.871C139.382 128.877 139.612 128.643 139.617 128.344C139.622 128.045 139.403 127.8 139.122 127.795C138.846 127.795 138.617 128.029 138.611 128.322C138.606 128.621 138.826 128.866 139.107 128.871Z" fill="#222221"/>
<path d="M138.629 125.642C138.07 125.638 137.613 125.871 137.605 126.17C137.598 126.466 138.041 126.71 138.593 126.718C139.152 126.722 139.61 126.485 139.617 126.19C139.625 125.89 139.189 125.646 138.629 125.642Z" fill="#222221"/>
<path d="M136.104 123.488C135.825 123.483 135.599 123.721 135.593 124.016C135.588 124.315 135.805 124.565 136.083 124.565C136.362 124.57 136.594 124.337 136.599 124.038C136.599 123.738 136.383 123.494 136.104 123.488Z" fill="#222221"/>
<path d="M136.541 122.064C136.633 122.345 136.614 122.62 136.493 122.885C136.371 123.149 136.182 123.331 135.92 123.424C135.658 123.523 135.401 123.507 135.154 123.378C134.902 123.243 134.732 123.04 134.645 122.76C134.553 122.48 134.572 122.204 134.693 121.94C134.814 121.675 135.004 121.493 135.266 121.395C135.532 121.301 135.785 121.317 136.032 121.447C136.284 121.582 136.454 121.784 136.541 122.064Z" fill="#222221"/>
<path d="M134.587 120.275C134.598 119.683 134.152 119.193 133.6 119.182C133.042 119.17 132.586 119.643 132.575 120.236C132.565 120.834 133.01 121.323 133.562 121.335C134.12 121.346 134.576 120.868 134.587 120.275Z" fill="#222221"/>
<path d="M134.603 117.028C134.045 117.025 133.588 117.263 133.581 117.558C133.569 117.857 134.013 118.101 134.571 118.105C135.123 118.112 135.587 117.874 135.593 117.578C135.606 117.28 135.161 117.035 134.603 117.028Z" fill="#222221"/>
<path d="M135.576 115.951C136.131 115.962 136.589 115.485 136.599 114.896C136.608 114.301 136.164 113.809 135.61 113.799C135.055 113.788 134.597 114.26 134.587 114.854C134.578 115.449 135.022 115.941 135.576 115.951Z" fill="#222221"/>
<path d="M131.586 111.645C131.033 111.641 130.576 111.876 130.563 112.176C130.556 112.473 130.999 112.718 131.552 112.722C132.111 112.729 132.568 112.491 132.575 112.194C132.588 111.898 132.145 111.652 131.586 111.645Z" fill="#222221"/>
<path d="M128.551 111.119C128.556 110.819 128.335 110.568 128.056 110.568C127.778 110.562 127.55 110.801 127.545 111.094C127.539 111.394 127.761 111.645 128.039 111.645C128.318 111.651 128.545 111.412 128.551 111.119Z" fill="#222221"/>
<path d="M134.075 107.338C134.351 107.348 134.583 106.871 134.587 106.281C134.592 105.69 134.369 105.204 134.093 105.185C133.817 105.176 133.586 105.652 133.581 106.243C133.577 106.833 133.799 107.329 134.075 107.338Z" fill="#222221"/>
<path d="M134.092 103.032C133.814 103.028 133.585 103.263 133.581 103.561C133.575 103.856 133.797 104.101 134.076 104.108C134.351 104.112 134.58 103.877 134.587 103.579C134.59 103.28 134.368 103.039 134.092 103.032Z" fill="#222221"/>
<path d="M125.393 102.119C125.487 102.224 125.537 102.354 125.532 102.503C125.532 102.652 125.478 102.777 125.38 102.883C125.281 102.983 125.16 103.036 125.02 103.031C124.881 103.031 124.765 102.974 124.666 102.868C124.572 102.762 124.522 102.633 124.527 102.484C124.527 102.335 124.581 102.21 124.679 102.104C124.778 102.003 124.899 101.951 125.038 101.955C125.178 101.955 125.294 102.013 125.393 102.119Z" fill="#222221"/>
<path d="M122.531 141.792C121.979 141.788 121.515 142.022 121.508 142.321C121.502 142.616 121.939 142.861 122.498 142.868C123.049 142.872 123.507 142.634 123.52 142.339C123.527 142.044 123.09 141.799 122.531 141.792Z" fill="#222221"/>
<path d="M124.033 138.562C123.754 138.551 123.525 139.025 123.52 139.617C123.515 140.214 123.737 140.704 124.013 140.715C124.292 140.725 124.521 140.251 124.526 139.659C124.531 139.063 124.31 138.572 124.033 138.562Z" fill="#222221"/>
<path d="M130.07 135.332C129.793 135.327 129.565 135.564 129.557 135.859C129.553 136.155 129.774 136.4 130.054 136.408C130.33 136.412 130.559 136.176 130.563 135.88C130.567 135.581 130.346 135.336 130.07 135.332Z" fill="#222221"/>
<path d="M125.55 129.948C124.994 129.942 124.538 130.181 124.527 130.476C124.515 130.774 124.959 131.019 125.515 131.025C126.071 131.031 126.527 130.793 126.538 130.494C126.544 130.199 126.106 129.952 125.55 129.948Z" fill="#222221"/>
<path d="M130.583 125.642C130.03 125.63 129.568 126.105 129.557 126.697C129.551 127.295 129.99 127.783 130.548 127.795C131.101 127.801 131.563 127.331 131.569 126.734C131.58 126.142 131.135 125.654 130.583 125.642Z" fill="#222221"/>
<path d="M127.563 124.565C127.006 124.559 126.549 124.796 126.539 125.095C126.528 125.391 126.97 125.636 127.526 125.642C128.083 125.647 128.54 125.41 128.551 125.112C128.556 124.816 128.115 124.571 127.563 124.565Z" fill="#222221"/>
<path d="M123.52 123.462C123.512 124.061 123.957 124.547 124.506 124.565C125.064 124.574 125.516 124.096 125.532 123.506C125.54 122.907 125.096 122.421 124.538 122.412C123.989 122.395 123.528 122.872 123.52 123.462Z" fill="#222221"/>
<path d="M117.995 122.412C117.723 122.403 117.492 122.643 117.484 122.942C117.484 123.232 117.699 123.48 117.979 123.488C118.258 123.488 118.49 123.258 118.49 122.959C118.498 122.66 118.274 122.42 117.995 122.412Z" fill="#222221"/>
<path d="M122.514 117.575C122.518 117.275 122.299 117.033 122.019 117.029C121.743 117.02 121.512 117.259 121.508 117.555C121.501 117.854 121.724 118.097 122.004 118.105C122.28 118.109 122.511 117.87 122.514 117.575Z" fill="#222221"/>
<path d="M125.017 115.952C125.296 115.958 125.526 115.718 125.532 115.426C125.532 115.128 125.314 114.881 125.036 114.875C124.757 114.875 124.533 115.108 124.526 115.407C124.52 115.699 124.745 115.945 125.017 115.952Z" fill="#222221"/>
<path d="M125.552 112.722C124.997 112.716 124.538 112.953 124.527 113.251C124.515 113.549 124.958 113.792 125.518 113.798C126.073 113.804 126.533 113.567 126.538 113.269C126.549 112.971 126.107 112.725 125.552 112.722Z" fill="#222221"/>
<path d="M123.539 110.568C122.981 110.563 122.52 111.033 122.514 111.631C122.504 112.222 122.944 112.716 123.501 112.721C124.059 112.733 124.515 112.262 124.526 111.665C124.537 111.074 124.092 110.58 123.539 110.568Z" fill="#222221"/>
<path d="M125.533 108.398C125.526 108.988 125.749 109.478 126.028 109.491C126.306 109.505 126.535 109.028 126.538 108.432C126.545 107.835 126.322 107.345 126.043 107.339C125.765 107.325 125.536 107.802 125.533 108.398Z" fill="#222221"/>
<path d="M116.99 106.262C116.713 106.256 116.484 106.495 116.478 106.791C116.472 107.086 116.696 107.332 116.972 107.338C117.249 107.345 117.478 107.105 117.484 106.809C117.49 106.514 117.266 106.268 116.99 106.262Z" fill="#222221"/>
<path d="M124.526 104.637C124.526 104.936 124.746 105.185 125.024 105.185C125.295 105.191 125.527 104.955 125.532 104.656C125.538 104.364 125.318 104.115 125.041 104.109C124.763 104.102 124.532 104.345 124.526 104.637Z" fill="#222221"/>
<path d="M129.064 101.955C128.781 101.955 128.556 102.189 128.551 102.485C128.546 102.781 128.766 103.026 129.043 103.032C129.321 103.037 129.552 102.797 129.557 102.502C129.562 102.206 129.342 101.961 129.064 101.955Z" fill="#222221"/>
<path d="M118.505 98.7253C117.953 98.7148 117.494 99.1862 117.484 99.7834C117.474 100.375 117.919 100.868 118.47 100.878C119.027 100.889 119.486 100.412 119.496 99.8201C119.506 99.2229 119.061 98.7357 118.505 98.7253Z" fill="#222221"/>
<path d="M114.978 94.4187C114.701 94.4058 114.472 94.8778 114.466 95.4726C114.463 96.0674 114.683 96.5588 114.96 96.5717C115.237 96.5782 115.466 96.1062 115.472 95.5114C115.475 94.9166 115.255 94.4252 114.978 94.4187Z" fill="#222221"/>
<path d="M126.539 93.8735C126.533 94.1689 126.753 94.4118 127.035 94.4183C127.311 94.4249 127.538 94.1886 127.545 93.8932C127.551 93.5912 127.33 93.3484 127.048 93.3418C126.772 93.3418 126.545 93.5781 126.539 93.8735Z" fill="#222221"/>
<path d="M116.99 84.7286C116.71 84.7238 116.483 84.9582 116.478 85.2597C116.474 85.5563 116.692 85.8003 116.972 85.8051C117.248 85.8099 117.475 85.5754 117.484 85.274C117.488 84.9774 117.266 84.7334 116.99 84.7286Z" fill="#222221"/>
<path d="M120.502 82.5578C120.499 83.1469 120.718 83.6378 120.995 83.6518C121.273 83.6588 121.502 83.1889 121.508 82.5928C121.511 81.9967 121.289 81.5058 121.012 81.4988C120.737 81.4848 120.506 81.9617 120.502 82.5578Z" fill="#222221"/>
<path d="M121.508 77.7417C121.512 77.4439 121.294 77.1965 121.016 77.192C120.738 77.1874 120.507 77.4256 120.502 77.7234C120.498 78.0165 120.721 78.2639 120.999 78.2685C121.277 78.2731 121.504 78.0349 121.508 77.7417Z" fill="#222221"/>
<path d="M119.001 75.0388C118.724 75.031 118.49 75.265 118.49 75.5614C118.483 75.8656 118.709 76.1074 118.986 76.1152C119.263 76.1152 119.489 75.8812 119.496 75.5848C119.503 75.2884 119.277 75.0388 119.001 75.0388Z" fill="#222221"/>
<path d="M114.962 75.0385C115.237 75.0433 115.467 74.8068 115.472 74.5123C115.476 74.213 115.255 73.9716 114.976 73.962C114.7 73.9572 114.47 74.1937 114.466 74.493C114.461 74.7875 114.682 75.0337 114.962 75.0385Z" fill="#222221"/>
<path d="M114.96 70.7318C115.239 70.738 115.472 70.5016 115.472 70.2029C115.478 69.9043 115.257 69.6616 114.978 69.6554C114.704 69.6492 114.472 69.8856 114.466 70.1843C114.46 70.4829 114.687 70.7256 114.96 70.7318Z" fill="#222221"/>
<path d="M118.474 66.4252C119.028 66.4318 119.49 65.9643 119.496 65.3651C119.508 64.7725 119.065 64.2852 118.511 64.272C117.952 64.2655 117.496 64.7396 117.484 65.3322C117.478 65.9248 117.921 66.4121 118.474 66.4252Z" fill="#222221"/>
<path d="M115.966 63.1952C116.244 63.2 116.473 62.9646 116.478 62.6666C116.482 62.3686 116.262 62.1235 115.984 62.1187C115.706 62.1139 115.476 62.3494 115.472 62.6474C115.468 62.9453 115.688 63.1904 115.966 63.1952Z" fill="#222221"/>
<path d="M119.496 55.1118C119.49 55.4107 119.712 55.6552 119.991 55.6585C120.267 55.6653 120.499 55.4276 120.502 55.1322C120.508 54.8334 120.286 54.5889 120.007 54.5821C119.731 54.5787 119.499 54.8164 119.496 55.1118Z" fill="#222221"/>
<path d="M121.487 52.4285C122.043 52.4398 122.504 51.9676 122.514 51.3717C122.52 50.7759 122.079 50.2812 121.524 50.2756C120.969 50.2643 120.508 50.7365 120.502 51.3324C120.492 51.9282 120.932 52.4173 121.487 52.4285Z" fill="#222221"/>
<path d="M118.983 51.352C119.263 51.3592 119.493 50.8824 119.496 50.29C119.5 49.6975 119.28 49.2063 119 49.1991C118.723 49.1846 118.494 49.6614 118.49 50.2538C118.484 50.8463 118.706 51.3375 118.983 51.352Z" fill="#222221"/>
<mask id="mask2_74_4" style="mask-type:luminance" maskUnits="userSpaceOnUse" x="132" y="18" width="13" height="11">
<path d="M132.438 18.3032H144.04V28.82H132.438V18.3032Z" fill="white"/>
</mask>
<g mask="url(#mask2_74_4)">
<path d="M139.49 28.6654C139.49 28.5509 139.457 28.516 139.383 28.5509C139.304 28.5808 139.281 28.5509 139.299 28.4314C139.318 28.3069 139.373 28.2671 139.606 28.2372C139.764 28.2123 139.927 28.1575 139.968 28.1177C140.108 27.9683 140.308 26.5491 140.192 26.5491C140.173 26.5491 140.029 26.6786 139.871 26.8379C139.717 26.9973 139.508 27.1716 139.406 27.2263C139.243 27.311 139.085 27.5201 139.085 27.6347C139.085 27.6596 139.16 27.6745 139.253 27.6745C139.42 27.6745 139.55 27.8438 139.462 27.9384C139.434 27.9683 139.318 27.9484 139.201 27.8986C139.006 27.8239 138.969 27.8289 138.871 27.9583C138.811 28.038 138.741 28.1376 138.723 28.1874C138.699 28.2571 138.676 28.2571 138.63 28.1824C138.597 28.1326 138.527 28.1027 138.476 28.1127C138.421 28.1227 138.369 28.0679 138.36 27.9783C138.342 27.8538 138.402 27.789 138.658 27.6546C139.09 27.4255 139.267 27.0919 139.299 26.4695L139.318 25.9964L138.95 25.5482C138.686 25.2246 138.472 25.0403 138.193 24.9009C137.835 24.7266 137.784 24.7167 137.551 24.8013C137.412 24.8511 137.282 24.9258 137.254 24.9656C137.221 25.0104 137.175 25.0005 137.124 24.9457C137.059 24.876 137.063 24.8063 137.156 24.6121C137.217 24.4727 137.268 24.2984 137.268 24.2287C137.268 23.9697 137.579 23.8004 138.067 23.8004H138.514L138.225 23.646C138.067 23.5614 137.798 23.3373 137.63 23.1531C137.463 22.9688 137.3 22.8145 137.272 22.8145C137.245 22.8145 137.128 22.7298 137.017 22.6203C136.905 22.5157 136.733 22.3663 136.631 22.2866C136.529 22.2119 136.352 22.0526 136.236 21.9381C136.12 21.8186 135.896 21.6393 135.738 21.5347C135.58 21.4252 135.45 21.3106 135.45 21.2758C135.45 21.2409 135.367 21.1961 135.269 21.1712C135.167 21.1513 134.916 21.0218 134.711 20.8874C134.507 20.7529 134.121 20.5288 133.856 20.3844C133.586 20.24 133.368 20.0807 133.368 20.0259C133.368 19.9761 133.252 19.9014 133.117 19.8616C132.447 19.6674 132.578 19.5329 133.335 19.6275C133.809 19.6873 134.037 19.762 134.618 20.0608C135.004 20.255 135.464 20.5189 135.632 20.6434C135.804 20.7629 136.166 20.9969 136.436 21.1513C136.924 21.4401 137.361 21.7737 138.983 23.1033C139.913 23.8651 140.089 23.9598 140.498 23.9299C140.768 23.91 140.796 23.89 140.856 23.661C140.898 23.4817 140.884 23.2377 140.796 22.7696C140.684 22.1621 140.684 22.1024 140.791 21.6542C141.033 20.6434 141.735 19.1595 142.242 18.5968C142.474 18.3329 142.716 18.303 142.716 18.537C142.72 18.6217 142.744 18.7412 142.781 18.796C142.813 18.8507 142.818 18.9553 142.79 19.035C142.725 19.2142 142.846 19.4881 143.004 19.5329C143.097 19.5578 143.115 19.6076 143.083 19.7471C143.05 19.8666 143.064 19.9263 143.12 19.9263C143.176 19.9263 143.19 19.996 143.162 20.1404C143.129 20.3147 143.143 20.3496 143.255 20.3496C143.343 20.3496 143.39 20.3994 143.39 20.489C143.39 20.5687 143.432 20.6334 143.483 20.6334C143.636 20.6334 143.743 20.8177 143.669 20.9621C143.617 21.0567 143.636 21.1015 143.748 21.1613C143.896 21.2459 143.906 21.2808 143.822 21.4949C143.794 21.5795 143.813 21.6194 143.887 21.6194C144.013 21.6194 144.031 21.8335 143.91 21.963C143.845 22.0377 143.845 22.0675 143.91 22.0924C144.031 22.1372 144.013 22.3215 143.878 22.4808C143.766 22.6103 143.766 22.6203 143.878 22.685C144.022 22.7696 144.027 22.9788 143.892 23.0983C143.822 23.163 143.799 23.2527 143.827 23.3871C143.859 23.5465 143.836 23.5963 143.692 23.6809C143.534 23.7656 143.525 23.7855 143.617 23.8701C143.729 23.9647 143.766 24.154 143.669 24.154C143.641 24.154 143.576 24.2635 143.525 24.4029C143.469 24.5473 143.385 24.6469 143.315 24.6469C143.255 24.6469 143.185 24.6918 143.167 24.7415C143.143 24.8113 143.046 24.8212 142.771 24.7864C142.395 24.7366 142.111 24.8162 142.111 24.9706C142.111 25.0851 142.404 25.4237 142.497 25.4237C142.534 25.4237 142.586 25.4686 142.604 25.5283C142.627 25.5881 142.692 25.6329 142.748 25.6329C142.804 25.6329 142.851 25.6628 142.851 25.7026C142.851 25.7424 142.916 25.7723 142.99 25.7723C143.069 25.7723 143.176 25.8221 143.232 25.8819C143.287 25.9366 143.399 25.9864 143.483 25.9864C143.566 25.9864 143.692 26.0313 143.762 26.086C143.887 26.1806 143.887 26.1856 143.701 26.2354C143.422 26.3101 142.809 26.2354 142.348 26.0711C142.014 25.9516 141.925 25.9416 141.842 26.0163C141.786 26.0661 141.568 26.1906 141.358 26.2852C141.075 26.4197 140.963 26.5143 140.931 26.6437C140.907 26.7433 140.903 26.8529 140.926 26.8877C140.986 26.9923 140.577 27.794 140.396 27.9185C140.308 27.9783 140.196 28.0978 140.154 28.1824C140.089 28.3119 140.099 28.3517 140.229 28.4513C140.336 28.536 140.368 28.6156 140.336 28.7003C140.294 28.8198 140.275 28.8148 140.113 28.6455L139.936 28.4613L139.49 28.8198V28.6654Z" fill="black"/>
</g>
<path d="M72.3238 147.896C70.3762 147.896 68.461 147.697 66.5784 147.299C64.7051 146.891 63.0456 146.183 61.5953 145.188C60.1543 144.182 59.1316 142.807 58.5273 141.064C57.9184 139.327 57.9044 137.141 58.4902 134.511L64.4029 135.467C63.8312 137.529 63.6592 139.207 63.8823 140.507C64.1054 141.796 64.6261 142.797 65.4442 143.514C66.2623 144.231 67.285 144.729 68.5121 145.008C69.7486 145.287 71.0502 145.427 72.4168 145.427C74.834 145.427 76.5446 144.958 77.5487 144.012C78.5527 143.071 79.0548 141.772 79.0548 140.108C79.0548 138.744 78.6736 137.693 77.9205 136.961C77.1629 136.234 76.1541 135.637 74.8898 135.169C73.6254 134.691 72.2216 134.173 70.6876 133.615C69.2234 133.072 67.8056 132.535 66.4297 132.002C65.0537 131.459 63.8126 130.822 62.7109 130.09C61.6185 129.363 60.7446 128.451 60.0892 127.361C59.4431 126.275 59.1223 124.931 59.1223 123.337C59.1223 121.296 59.6708 119.647 60.7772 118.398C61.8928 117.153 63.3803 116.236 65.2397 115.649C67.1083 115.066 69.2001 114.772 71.5057 114.772C73.2907 114.772 75.006 114.982 76.6562 115.39C78.3157 115.788 79.7613 116.436 80.9885 117.322C82.2157 118.213 83.071 119.389 83.5544 120.848C84.0379 122.312 83.9728 124.114 83.3685 126.265L77.4557 125.289C78.2459 123.273 78.4784 121.679 78.1437 120.509C77.809 119.344 77.0559 118.507 75.8938 117.999C74.7271 117.496 73.2768 117.242 71.5429 117.242C69.2745 117.242 67.6196 117.676 66.5784 118.537C65.5465 119.403 65.0351 120.599 65.0351 122.122C65.0351 123.198 65.3512 124.089 65.9834 124.791C66.6249 125.483 67.4709 126.056 68.5121 126.504C69.5627 126.957 70.7108 127.416 71.952 127.879C73.5882 128.466 75.1873 129.044 76.7491 129.612C78.311 130.169 79.7055 130.827 80.9327 131.583C82.1692 132.33 83.15 133.276 83.8705 134.432C84.6003 135.587 84.9675 137.041 84.9675 138.794C84.9675 141.134 84.3818 142.957 83.2197 144.271C82.053 145.586 80.5097 146.522 78.5899 147.08C76.6794 147.623 74.5923 147.896 72.3238 147.896Z" fill="black"/>
<path d="M100.514 147.896C97.6368 147.896 95.2894 147.299 93.4672 146.104C91.645 144.899 90.297 143.33 89.4324 141.403C88.5771 139.466 88.1494 137.41 88.1494 135.229C88.1494 133.052 88.5771 131.001 89.4324 129.074C90.297 127.137 91.645 125.568 93.4672 124.373C95.2894 123.168 97.6368 122.561 100.514 122.561C103.401 122.561 105.744 123.168 107.543 124.373C109.351 125.568 110.69 127.137 111.559 129.074C112.423 131.001 112.86 133.052 112.86 135.229C112.86 137.41 112.423 139.466 111.559 141.403C110.69 143.33 109.351 144.899 107.543 146.104C105.744 147.299 103.401 147.896 100.514 147.896ZM101.611 145.367C103.768 145.118 105.265 144.047 106.111 142.16C106.966 140.278 107.227 137.738 106.892 134.551C106.594 131.364 105.837 128.929 104.623 127.241C103.406 125.558 101.658 124.841 99.38 125.09C97.2603 125.319 95.7728 126.385 94.9175 128.297C94.0715 130.199 93.8019 132.739 94.0994 135.926C94.4341 139.103 95.2011 141.523 96.405 143.196C97.6043 144.869 99.3428 145.596 101.611 145.367Z" fill="black"/>
<path d="M126.549 147.896C124.178 147.896 122.291 147.089 120.878 145.466C119.464 143.848 118.758 141.457 118.758 138.295V128.894C118.758 127.236 118.581 126.101 118.237 125.488C117.889 124.866 117.308 124.552 116.49 124.552V123.038H126.958V124.552C126.14 124.552 125.549 124.866 125.191 125.488C124.843 126.101 124.671 127.236 124.671 128.894V140.148C124.671 141.741 124.95 143.026 125.507 143.992C126.075 144.948 127.032 145.426 128.371 145.426C129.672 145.426 130.769 145.038 131.662 144.251C132.554 143.469 133.27 142.428 133.819 141.124C134.363 139.824 134.767 138.365 135.027 136.742C135.288 135.123 135.418 133.485 135.418 131.822V128.894C135.418 127.236 135.241 126.101 134.897 125.488C134.549 124.866 133.958 124.552 133.131 124.552V123.038H143.599V124.552C142.818 124.552 142.242 124.866 141.87 125.488C141.507 126.101 141.331 127.236 141.331 128.894V141.562C141.331 143.225 141.507 144.366 141.87 144.988C142.242 145.6 142.818 145.904 143.599 145.904V147.418H140.55C139.369 147.418 138.402 147.338 137.649 147.179C136.891 147.02 136.329 146.641 135.957 146.044C135.595 145.436 135.418 144.48 135.418 143.175V140.646H135.046C134.535 142.717 133.605 144.445 132.257 145.825C130.904 147.209 129.003 147.896 126.549 147.896Z" fill="black"/>
<path d="M147.24 147.418V145.904C148.058 145.904 148.639 145.601 148.988 144.988C149.332 144.366 149.509 143.225 149.509 141.562V118.178C149.509 116.52 149.332 115.385 148.988 114.772C148.639 114.15 148.058 113.836 147.24 113.836V112.322H150.29C151.466 112.322 152.433 112.412 153.19 112.581C153.957 112.741 154.52 113.134 154.882 113.756C155.24 114.369 155.421 115.34 155.421 116.664V141.562C155.421 143.225 155.593 144.366 155.942 144.988C156.3 145.601 156.89 145.904 157.708 145.904V147.418H147.24Z" fill="black"/>
<path d="M173.084 147.896C170.23 147.896 167.901 147.369 166.093 146.303C164.28 145.227 162.96 143.773 162.133 141.941C161.301 140.099 160.887 138.037 160.887 135.766C160.887 133.008 161.426 130.642 162.505 128.675C163.583 126.713 165.061 125.205 166.949 124.154C168.845 123.093 171.039 122.561 173.531 122.561C176.292 122.561 178.532 123.173 180.243 124.393C181.954 125.618 182.809 127.341 182.809 129.572C182.809 131.076 182.46 132.32 181.768 133.316C181.07 134.302 180.15 135.079 178.997 135.647C177.844 136.219 176.561 136.613 175.148 136.822C173.735 137.036 172.294 137.091 170.835 136.981C169.384 136.862 168.036 136.638 166.8 136.304V136.802C166.823 138.386 167.065 139.825 167.525 141.124C167.98 142.429 168.659 143.47 169.552 144.251C170.444 145.038 171.56 145.427 172.898 145.427C173.74 145.427 174.502 145.257 175.186 144.909C175.878 144.565 176.399 143.968 176.747 143.116C177.091 142.255 177.161 141.06 176.952 139.531L182.865 138.216C183.013 139.969 182.725 141.582 182.009 143.056C181.303 144.53 180.196 145.705 178.7 146.582C177.198 147.458 175.325 147.896 173.084 147.896ZM166.893 133.814C170.077 134.626 172.536 134.611 174.274 133.774C176.022 132.928 176.896 131.544 176.896 129.632C176.896 128.173 176.566 127.042 175.911 126.245C175.265 125.449 174.228 125.05 172.806 125.05C170.858 125.05 169.421 125.817 168.492 127.341C167.571 128.87 167.041 131.026 166.893 133.814Z" fill="black"/>
<path d="M197.104 147.896C195.18 147.896 193.423 147.418 191.824 146.462C190.234 145.506 188.96 144.087 187.993 142.2C187.026 140.317 186.543 137.992 186.543 135.228C186.543 132.44 187.026 130.109 187.993 128.237C188.96 126.365 190.234 124.95 191.824 123.994C193.423 123.038 195.18 122.56 197.104 122.56C198.973 122.56 200.683 122.998 202.236 123.875C203.784 124.751 205.03 126.021 205.973 127.679H206.327V118.178C206.327 116.52 206.15 115.385 205.806 114.772C205.457 114.15 204.876 113.836 204.058 113.836V112.322H207.108C208.321 112.322 209.302 112.412 210.045 112.581C210.789 112.741 211.338 113.134 211.7 113.756C212.058 114.369 212.239 115.34 212.239 116.664V141.562C212.239 143.225 212.416 144.366 212.779 144.988C213.151 145.601 213.732 145.904 214.526 145.904V147.418H211.477C209.715 147.418 208.414 147.239 207.572 146.88C206.74 146.522 206.327 145.546 206.327 143.952V142.797H205.973C205.03 144.445 203.784 145.705 202.236 146.582C200.683 147.458 198.973 147.896 197.104 147.896ZM199.149 145.426C201.39 145.426 203.091 144.52 204.244 142.698C205.397 140.88 205.973 138.39 205.973 135.228C205.973 132.081 205.397 129.601 204.244 127.779C203.091 125.961 201.39 125.05 199.149 125.05C197.016 125.05 195.417 125.946 194.352 127.739C193.297 129.522 192.772 132.016 192.772 135.228C192.772 138.455 193.297 140.965 194.352 142.757C195.417 144.54 197.016 145.426 199.149 145.426Z" fill="black"/>
<mask id="mask3_74_4" style="mask-type:luminance" maskUnits="userSpaceOnUse" x="127" y="29" width="12" height="12">
<path d="M127.083 29.0737H138.983V40.93H127.083V29.0737Z" fill="white"/>
</mask>
<g mask="url(#mask3_74_4)">
<path d="M132.703 40.2577C135.632 40.2577 138.002 37.7181 138.002 34.591C138.002 33.6249 137.779 32.7187 137.379 31.9219C137.379 31.9568 137.384 31.9867 137.384 32.0215C137.384 34.1428 135.771 35.8657 133.786 35.8657C131.806 35.8657 130.193 34.1428 130.193 32.0215C130.193 30.8414 130.695 29.7807 131.48 29.0786C129.142 29.6662 127.404 31.912 127.404 34.591C127.404 37.7181 129.779 40.2577 132.703 40.2577Z" fill="#222221"/>
</g>
<path d="M152.202 124.565C151.925 124.56 151.695 124.796 151.69 125.093C151.685 125.39 151.906 125.636 152.184 125.642C152.466 125.647 152.691 125.41 152.696 125.113C152.701 124.817 152.48 124.57 152.202 124.565Z" fill="#222221"/>
<path d="M157.232 121.335C156.952 121.321 156.724 121.798 156.72 122.39C156.714 122.99 156.936 123.481 157.215 123.488C157.491 123.502 157.72 123.026 157.726 122.433C157.73 121.834 157.511 121.343 157.232 121.335Z" fill="#222221"/>
<mask id="mask4_74_4" style="mask-type:luminance" maskUnits="userSpaceOnUse" x="158" y="118" width="3" height="4">
<path d="M158.023 118.69H160.64V121.24H158.023V118.69Z" fill="white"/>
</mask>
<g mask="url(#mask4_74_4)">
<path d="M159.803 119.278C159.343 119.273 158.967 119.662 158.957 120.15C158.953 120.643 159.315 121.046 159.775 121.056C160.231 121.066 160.612 120.672 160.617 120.184C160.626 119.691 160.264 119.288 159.803 119.278Z" fill="#222221"/>
</g>
<path d="M157.739 117.029C157.186 117.015 156.727 117.494 156.72 118.088C156.708 118.682 157.154 119.175 157.708 119.181C158.261 119.195 158.72 118.722 158.732 118.122C158.739 117.528 158.298 117.035 157.739 117.029Z" fill="#222221"/>
<path d="M154.1 117.195C154.491 117.2 154.81 116.873 154.82 116.462C154.824 116.051 154.514 115.714 154.124 115.709C153.776 115.699 153.484 115.957 153.419 116.298C153.042 115.095 152.647 113.897 152.238 112.699C152.356 112.53 152.431 112.327 152.436 112.1C152.445 111.604 152.116 111.184 151.674 111.075C151.044 109.277 150.395 107.495 149.751 105.712C148.937 103.479 148.11 101.246 147.466 98.9536C146.854 96.7651 146.422 94.527 146.083 92.2791C145.397 87.7782 145.053 83.2229 144.212 78.7518C144.09 78.1032 143.958 77.4545 143.812 76.8108C143.676 76.2216 143.572 75.5878 143.365 75.0234C143.253 74.7114 143.083 74.4193 142.923 74.1321C142.152 72.7606 141.113 71.4237 139.731 70.7057C139.444 68.7252 139.364 66.6901 138.983 64.7442C138.814 63.9025 138.588 63.0756 138.268 62.2834C137.906 61.3772 137.398 60.5652 136.862 59.7581C135.786 58.1539 134.873 56.4852 134.196 54.6483C133.435 52.5984 132.931 50.4495 132.546 48.2906C132.532 48.1966 132.424 48.1173 132.334 48.1223C131.624 48.157 130.952 48.5184 130.51 49.1076C129.964 49.8305 129.927 50.801 129.903 51.6873C129.837 53.8956 130.317 56.0842 130.961 58.1737C131.036 58.4262 131.116 58.6738 131.201 58.9263C128.982 57.4062 126.268 56.9309 123.946 55.6534C123.837 55.4454 123.631 55.2969 123.386 55.292C123.372 55.292 123.363 55.2969 123.348 55.2969C123.019 55.0889 122.7 54.8612 122.394 54.6037C122.305 54.5294 122.173 54.5047 122.084 54.6037C121.331 55.4355 121.077 56.6734 121.444 57.7578C121.877 59.0303 123.033 59.6492 124.096 60.2582C126.598 61.704 129.4 62.8429 131.163 65.3334C131.253 65.4622 131.337 65.5959 131.427 65.7295C128.051 65.1948 124.717 64.4174 121.444 63.4073C121.609 63.2588 121.712 63.0409 121.717 62.7934C121.726 62.3378 121.378 61.9615 120.946 61.9516C120.508 61.9467 120.151 62.3081 120.142 62.7686C120.142 62.8924 120.17 63.0112 120.212 63.1152C120.165 63.1598 120.132 63.2291 120.123 63.2984C119.958 64.6501 120.433 65.9177 121.294 66.8139C121.289 66.8436 121.284 66.8733 121.28 66.903C121.275 67.2298 121.524 67.5022 121.839 67.5121C121.924 67.5121 121.999 67.4923 122.074 67.4625C122.408 67.6755 122.775 67.8488 123.165 67.9676C124.449 68.3489 125.761 68.6113 127.026 69.0718C128.319 69.5421 129.457 70.2898 130.543 71.1514C131.587 71.9733 132.993 72.8893 133.312 74.3153C133.336 74.4242 133.392 74.6174 133.472 74.6223C133.373 75.1868 133.256 75.7364 133.119 76.2761C132.466 75.8602 131.384 75.7809 130.67 75.7265C129.673 75.6522 128.676 75.5779 127.684 75.5037C125.69 75.3551 123.696 75.2066 121.703 75.058C121.562 75.0481 121.453 75.2115 121.491 75.3502C122.027 77.1871 123.428 78.6676 125.182 79.2222C127.256 79.8807 129.438 80.0738 131.281 81.3513C131.093 81.7573 130.891 82.1584 130.684 82.5545C130.204 83.4507 129.701 84.3568 129.113 85.1787C129 85.3372 128.873 85.4808 128.746 85.6343C128.662 85.7382 128.455 86.0898 128.309 86.1839C128.337 86.1393 128.098 86.0997 128.178 86.1195C128.041 86.0848 127.886 86.0799 127.75 86.0452C127.547 86.0007 127.35 85.9413 127.157 85.867C126.706 85.6937 126.283 85.4461 125.892 85.1589C125.079 84.5648 124.491 83.7775 123.823 83.0249C123.132 82.2425 122.37 81.5345 121.651 80.7819C121.684 80.7076 121.707 80.6234 121.707 80.5393C121.712 80.2224 121.472 79.9599 121.171 79.955C121.091 79.95 121.011 79.9698 120.941 80.0045C120.4 79.3608 119.883 78.7023 119.187 78.222C117.654 77.1574 115.853 77.3357 114.532 78.6825C114.485 78.7369 114.447 78.836 114.476 78.9053C115.924 82.5297 118.397 85.5105 120.809 88.4566C122.206 90.1599 123.598 91.8632 124.994 93.5664C126.01 94.8093 127.002 96.0818 128.116 97.2256C127.905 97.2998 127.75 97.5078 127.745 97.7554C127.74 98.0673 127.975 98.3248 128.276 98.3297C128.53 98.3347 128.746 98.1515 128.803 97.8989C128.878 97.9732 128.953 98.0475 129.033 98.1168C130.355 99.3002 131.85 100.241 133.256 101.315C134.761 102.464 136.035 103.791 136.952 105.504C137.892 107.252 138.518 109.173 139.19 111.05C139.9 113.045 140.591 115.051 141.146 117.106C141.776 119.448 142.199 121.829 142.34 124.265C142.486 126.776 142.401 129.291 142.312 131.801C142.303 132.093 142.74 132.093 142.749 131.801C142.905 127.38 142.966 122.988 141.983 118.66C141.517 116.61 140.887 114.61 140.21 112.629C139.552 110.723 138.898 108.792 138.113 106.935C137.389 105.207 136.458 103.608 135.127 102.321C133.853 101.083 132.367 100.127 130.952 99.0823C129.344 97.894 127.98 96.4927 126.692 94.938C125.864 93.9378 125.041 92.9327 124.223 91.9275C124.604 91.9028 124.91 91.576 124.914 91.165C124.924 90.7392 124.599 90.3827 124.19 90.3777C123.833 90.3678 123.527 90.6303 123.452 90.9868C123.17 90.6352 122.883 90.2886 122.596 89.9371C119.794 86.5107 116.667 83.114 114.95 78.9053C115.543 78.3359 116.272 77.9497 117.09 77.9546C117.955 77.9596 118.769 78.3903 119.417 78.9697C119.874 79.3707 120.259 79.851 120.654 80.3263C120.631 80.3858 120.617 80.4501 120.617 80.5145C120.612 80.8314 120.852 81.0938 121.153 81.0988C121.209 81.0988 121.261 81.0889 121.312 81.074C121.317 81.0839 121.322 81.0889 121.331 81.0938C122.055 81.8514 122.822 82.5594 123.518 83.3467C124.12 84.03 124.66 84.743 125.366 85.3174C126.038 85.8571 126.8 86.2978 127.632 86.4859C127.886 86.5453 128.361 86.6939 128.587 86.5255C128.742 86.4067 128.883 86.169 129.01 86.0205C129.414 85.5303 129.757 85.0203 130.091 84.4756C130.674 83.5299 131.21 82.5446 131.69 81.5295L131.817 81.2572C132.95 78.7914 133.75 76.1473 134.102 73.434C134.351 71.5128 134.375 69.5669 134.13 67.6457C133.853 65.4919 133.209 63.4321 132.508 61.3971C131.704 59.0649 130.848 56.7279 130.496 54.2621C130.312 52.9895 130.242 51.6428 130.449 50.3702C130.604 49.4493 131.286 48.7313 132.165 48.6026C132.842 52.3459 133.919 56.0594 135.983 59.2333C136.529 60.075 137.121 60.8871 137.572 61.7932C137.972 62.6003 138.249 63.4667 138.452 64.3481C138.861 66.1207 138.969 67.9478 139.181 69.76C139.223 70.1165 139.27 70.478 139.326 70.8394C139.317 70.879 139.326 70.9186 139.345 70.9583C139.575 72.4882 139.938 73.9885 140.648 75.365C140.779 75.6225 141.155 75.3947 141.024 75.1323C140.394 73.9142 140.05 72.612 139.825 71.2751C140.93 71.9584 141.785 73.0478 142.448 74.1866C142.627 74.4936 142.825 74.8204 142.956 75.1571C143.064 75.4541 143.121 75.7908 143.196 76.1028C143.332 76.6524 143.455 77.202 143.572 77.7566C144.494 82.1683 144.861 86.6741 145.477 91.1303C145.792 93.3783 146.168 95.6213 146.718 97.8247C147.268 100.043 148.016 102.202 148.792 104.346C149.6 106.589 150.423 108.827 151.213 111.075C150.79 111.189 150.47 111.58 150.466 112.06C150.456 112.634 150.889 113.105 151.434 113.115C151.594 113.12 151.749 113.075 151.886 113.006C152.342 114.348 152.784 115.694 153.202 117.056C154.688 121.874 155.864 126.82 156.282 131.881C156.31 132.173 156.743 132.178 156.719 131.881C156.296 126.781 155.125 121.844 153.64 116.997C153.762 117.115 153.922 117.19 154.1 117.195ZM131.474 80.9354C129.795 79.7767 127.778 79.4153 125.85 78.93C124.101 78.4894 122.648 77.3208 122.018 75.5433C123.809 75.677 125.605 75.8106 127.397 75.9443C128.323 76.0137 129.25 76.083 130.171 76.1523C130.999 76.2117 132.287 76.2117 132.997 76.7415C132.612 78.1725 132.104 79.5539 131.474 80.9354ZM133.613 73.7855C133.265 72.8596 132.513 72.1813 131.77 71.5722C130.764 70.7453 129.748 69.9036 128.61 69.2847C127.444 68.6509 126.17 68.2944 124.905 67.9676C124.049 67.7448 123.146 67.5764 122.375 67.1358C122.399 67.0664 122.417 66.9971 122.417 66.9228C122.422 66.596 122.173 66.3237 121.858 66.3188C121.731 66.3138 121.613 66.3584 121.519 66.4327C120.842 65.6701 120.49 64.6452 120.537 63.6004C124.077 64.7343 127.684 65.6008 131.342 66.1752L131.77 66.2891C132.546 67.5616 132.931 68.7054 133.467 70.1017C133.482 70.1363 133.5 70.171 133.519 70.2007L133.862 70.7651C133.844 71.7802 133.759 72.7903 133.613 73.7855ZM131.422 59.5848C131.982 61.2535 132.593 62.8973 133.058 64.5957C133.533 66.3287 133.811 68.0963 133.858 69.8937C133.336 68.542 132.804 67.1853 132.08 65.9425C131.37 64.7294 130.467 63.7044 129.377 62.8627C128.286 62.0259 127.082 61.3772 125.883 60.7336C125.276 60.4018 124.665 60.075 124.068 59.7235C123.518 59.3967 122.902 59.0699 122.45 58.5995C121.548 57.6538 121.482 56.104 122.276 55.079C122.479 55.2375 122.685 55.3811 122.897 55.5247C122.794 55.6435 122.728 55.797 122.723 55.9703C122.718 56.3516 123.005 56.6635 123.367 56.6684C123.668 56.6734 123.922 56.4605 124.002 56.1684C126.386 57.3963 129.113 57.9014 131.304 59.5502C131.342 59.5799 131.384 59.5848 131.422 59.5848Z" fill="#0DC9FD"/>
<path d="M156.21 109.492C156.488 109.498 156.717 109.261 156.72 108.963C156.726 108.664 156.506 108.418 156.228 108.415C155.949 108.409 155.72 108.645 155.714 108.944C155.709 109.243 155.932 109.488 156.21 109.492Z" fill="#222221"/>
<path d="M155.714 106.79C155.708 107.087 155.931 107.332 156.208 107.338C156.485 107.342 156.714 107.106 156.72 106.81C156.726 106.513 156.503 106.268 156.226 106.262C155.949 106.259 155.72 106.494 155.714 106.79Z" fill="#222221"/>
<path d="M150.172 106.262C150.45 106.273 150.679 105.799 150.684 105.207C150.687 104.611 150.466 104.12 150.19 104.109C149.912 104.097 149.683 104.572 149.678 105.168C149.673 105.76 149.894 106.256 150.172 106.262Z" fill="#222221"/>
<path d="M152.186 103.032C152.463 103.037 152.691 102.8 152.696 102.504C152.701 102.208 152.479 101.96 152.201 101.955C151.923 101.955 151.695 102.187 151.69 102.483C151.68 102.779 151.903 103.026 152.186 103.032Z" fill="#222221"/>
<path d="M154.708 97.6298C154.703 98.2243 154.924 98.7125 155.201 98.725C155.478 98.7313 155.708 98.2619 155.714 97.6673C155.717 97.0727 155.496 96.5783 155.219 96.572C154.942 96.5595 154.714 97.0352 154.708 97.6298Z" fill="#222221"/>
<path d="M149.678 86.3545C149.683 86.0524 149.463 85.8053 149.188 85.8053C148.907 85.7998 148.677 86.0359 148.672 86.3325C148.672 86.6346 148.891 86.8762 149.167 86.8817C149.448 86.8872 149.673 86.6511 149.678 86.3545Z" fill="#222221"/>
<path d="M158.239 80.4219C157.961 80.4177 157.735 80.656 157.727 80.9496C157.723 81.2474 157.945 81.4942 158.224 81.4985C158.502 81.5027 158.728 81.2687 158.732 80.9708C158.74 80.673 158.518 80.4304 158.239 80.4219Z" fill="#222221"/>
<path d="M151.69 76.1013C151.687 76.6948 151.909 77.1847 152.185 77.1916C152.461 77.2054 152.689 76.7293 152.696 76.1358C152.702 75.5424 152.481 75.0524 152.201 75.0386C151.925 75.0317 151.696 75.501 151.69 76.1013Z" fill="#222221"/>
<path d="M155.203 73.9617C155.48 73.9741 155.709 73.4977 155.714 72.9037C155.717 72.3098 155.497 71.821 155.22 71.8087C154.94 71.8025 154.711 72.2727 154.708 72.8666C154.703 73.4605 154.925 73.9493 155.203 73.9617Z" fill="#222221"/>
<path d="M155.202 70.7317C155.481 70.7413 155.705 70.499 155.714 70.2081C155.723 69.9076 155.499 69.6556 155.22 69.6556C154.942 69.6459 154.717 69.8882 154.708 70.1888C154.708 70.4796 154.924 70.7317 155.202 70.7317Z" fill="#222221"/>
<path d="M142.125 71.8085C142.402 71.8137 142.631 71.5786 142.635 71.2807C142.64 70.9829 142.422 70.7372 142.145 70.732C141.868 70.7268 141.634 70.9619 141.629 71.2598C141.629 71.5577 141.848 71.8033 142.125 71.8085Z" fill="#222221"/>
<path d="M151.669 65.3485C152.226 65.3587 152.686 64.886 152.696 64.29C152.706 63.699 152.264 63.2058 151.707 63.1955C151.15 63.1852 150.694 63.6579 150.684 64.254C150.67 64.85 151.117 65.3382 151.669 65.3485Z" fill="#222221"/>
<path d="M142.635 64.8218C142.638 64.524 142.419 64.2786 142.142 64.2721C141.864 64.2656 141.636 64.5044 141.63 64.8021C141.623 65.0999 141.846 65.3452 142.123 65.3485C142.401 65.355 142.629 65.1162 142.635 64.8218Z" fill="#222221"/>
<path d="M143.642 61.5705C143.634 61.8684 143.857 62.1146 144.135 62.1186C144.414 62.1226 144.644 61.8882 144.647 61.5903C144.655 61.2924 144.432 61.0462 144.154 61.0422C143.876 61.0342 143.645 61.2726 143.642 61.5705Z" fill="#222221"/>
<path d="M144.136 61.0419C144.414 61.0494 144.644 60.5784 144.648 59.9804C144.651 59.3899 144.432 58.8965 144.153 58.889C143.875 58.8741 143.645 59.3525 143.642 59.943C143.638 60.5411 143.857 61.0344 144.136 61.0419Z" fill="#222221"/>
<path d="M148.16 56.7352C148.439 56.7415 148.672 56.4988 148.672 56.2064C148.678 55.9077 148.457 55.6588 148.178 55.6588C147.898 55.6526 147.672 55.889 147.666 56.1877C147.66 56.4864 147.881 56.729 148.16 56.7352Z" fill="#222221"/>
<path d="M145.654 55.1069C145.648 55.4096 145.874 55.6518 146.151 55.6586C146.427 55.6653 146.66 55.4231 146.66 55.1271C146.666 54.8311 146.446 54.5889 146.169 54.5822C145.887 54.5754 145.66 54.8109 145.654 55.1069Z" fill="#222221"/>
<path d="M142.142 53.5054C141.862 53.5015 141.633 53.7356 141.629 54.0359C141.626 54.3323 141.847 54.5781 142.123 54.582C142.399 54.5859 142.628 54.3518 142.635 54.0554C142.639 53.7551 142.418 53.5093 142.142 53.5054Z" fill="#222221"/>
<path d="M149.664 50.2754C150.219 50.2784 150.672 50.0449 150.684 49.7477C150.695 49.4505 150.253 49.2048 149.698 49.1988C149.142 49.1957 148.683 49.4323 148.672 49.7264C148.666 50.0236 149.108 50.2693 149.664 50.2754Z" fill="#222221"/>
<path d="M144.628 50.2752C145.185 50.2858 145.644 49.8108 145.654 49.2198C145.663 48.6235 145.22 48.1328 144.667 48.1222C144.11 48.1117 143.652 48.5866 143.642 49.1776C143.632 49.7739 144.076 50.2647 144.628 50.2752Z" fill="#222221"/>
<path d="M151.624 125.421C151.618 125.717 151.842 125.963 152.118 125.969C152.395 125.975 152.624 125.736 152.63 125.44C152.636 125.144 152.413 124.899 152.136 124.893C151.86 124.893 151.63 125.126 151.624 125.421Z" fill="#222221"/>
<path d="M142.125 45.9685C142.403 45.9815 142.629 45.5081 142.635 44.9114C142.638 44.3213 142.418 43.8285 142.14 43.8155C141.862 43.809 141.635 44.2824 141.629 44.879C141.626 45.4692 141.847 45.962 142.125 45.9685Z" fill="#222221"/>
<path d="M141.113 43.8152C141.389 43.8244 141.621 43.5832 141.629 43.2864C141.629 42.9895 141.406 42.7483 141.131 42.739C140.855 42.7298 140.632 42.971 140.623 43.2678C140.623 43.5647 140.838 43.8152 141.113 43.8152Z" fill="#222221"/>
<path d="M143.13 38.4319C143.411 38.441 143.641 38.2039 143.641 37.9029C143.65 37.602 143.428 37.3648 143.147 37.3557C142.866 37.3466 142.636 37.5837 142.636 37.8847C142.627 38.1856 142.849 38.4319 143.13 38.4319Z" fill="#222221"/>
<path d="M145.143 134.255C145.418 134.26 145.649 134.024 145.654 133.724C145.659 133.43 145.438 133.184 145.158 133.178C144.883 133.173 144.653 133.409 144.648 133.709C144.643 134.003 144.864 134.25 145.143 134.255Z" fill="#222221"/>
<path d="M135.61 132.102C135.056 132.092 134.597 132.564 134.587 133.158C134.578 133.752 135.018 134.245 135.576 134.255C136.13 134.265 136.589 133.793 136.599 133.199C136.608 132.604 136.163 132.112 135.61 132.102Z" fill="#222221"/>
<path d="M138.116 129.948C137.838 129.941 137.612 130.414 137.605 131.011C137.602 131.601 137.822 132.094 138.1 132.101C138.375 132.115 138.605 131.643 138.611 131.046C138.614 130.455 138.395 129.962 138.116 129.948Z" fill="#222221"/>
<path d="M139.107 128.871C139.382 128.877 139.612 128.643 139.617 128.344C139.622 128.045 139.403 127.8 139.122 127.795C138.846 127.795 138.617 128.029 138.611 128.322C138.606 128.621 138.826 128.866 139.107 128.871Z" fill="#222221"/>
<path d="M138.629 125.642C138.07 125.638 137.613 125.871 137.605 126.17C137.598 126.466 138.041 126.71 138.593 126.718C139.152 126.722 139.61 126.485 139.617 126.19C139.625 125.89 139.189 125.646 138.629 125.642Z" fill="#222221"/>
<path d="M136.104 123.488C135.825 123.483 135.599 123.721 135.593 124.016C135.588 124.315 135.805 124.565 136.083 124.565C136.362 124.57 136.594 124.337 136.599 124.038C136.599 123.738 136.383 123.494 136.104 123.488Z" fill="#222221"/>
<path d="M136.541 122.064C136.633 122.345 136.614 122.62 136.493 122.885C136.371 123.149 136.182 123.331 135.92 123.424C135.658 123.523 135.401 123.507 135.154 123.378C134.902 123.243 134.732 123.04 134.645 122.76C134.553 122.48 134.572 122.204 134.693 121.94C134.814 121.675 135.004 121.493 135.266 121.395C135.532 121.301 135.785 121.317 136.032 121.447C136.284 121.582 136.454 121.784 136.541 122.064Z" fill="#222221"/>
<path d="M134.587 120.275C134.598 119.683 134.152 119.193 133.6 119.182C133.042 119.17 132.586 119.643 132.575 120.236C132.565 120.834 133.01 121.323 133.562 121.335C134.12 121.346 134.576 120.868 134.587 120.275Z" fill="#222221"/>
<path d="M134.603 117.028C134.045 117.025 133.588 117.263 133.581 117.558C133.569 117.857 134.013 118.101 134.571 118.105C135.123 118.112 135.587 117.874 135.593 117.578C135.606 117.28 135.161 117.035 134.603 117.028Z" fill="#222221"/>
<path d="M135.576 115.951C136.131 115.962 136.589 115.485 136.599 114.896C136.608 114.301 136.164 113.809 135.61 113.799C135.055 113.788 134.597 114.26 134.587 114.854C134.578 115.449 135.022 115.941 135.576 115.951Z" fill="#222221"/>
<path d="M131.586 111.645C131.033 111.641 130.576 111.876 130.563 112.176C130.556 112.473 130.999 112.718 131.552 112.722C132.111 112.729 132.568 112.491 132.575 112.194C132.588 111.898 132.145 111.652 131.586 111.645Z" fill="#222221"/>
<path d="M128.551 111.119C128.556 110.819 128.335 110.568 128.056 110.568C127.778 110.562 127.55 110.801 127.545 111.094C127.539 111.394 127.761 111.645 128.039 111.645C128.318 111.651 128.545 111.412 128.551 111.119Z" fill="#222221"/>
<path d="M134.075 107.338C134.351 107.348 134.583 106.871 134.587 106.281C134.592 105.69 134.369 105.204 134.093 105.185C133.817 105.176 133.586 105.652 133.581 106.243C133.577 106.833 133.799 107.329 134.075 107.338Z" fill="#222221"/>
<path d="M134.092 103.032C133.814 103.028 133.585 103.263 133.581 103.561C133.575 103.856 133.797 104.101 134.076 104.108C134.351 104.112 134.58 103.877 134.587 103.579C134.59 103.28 134.368 103.039 134.092 103.032Z" fill="#222221"/>
<path d="M125.393 102.119C125.487 102.224 125.537 102.354 125.532 102.503C125.532 102.652 125.478 102.777 125.38 102.883C125.281 102.983 125.16 103.036 125.02 103.031C124.881 103.031 124.765 102.974 124.666 102.868C124.572 102.762 124.522 102.633 124.527 102.484C124.527 102.335 124.581 102.21 124.679 102.104C124.778 102.003 124.899 101.951 125.038 101.955C125.178 101.955 125.294 102.013 125.393 102.119Z" fill="#222221"/>
<path d="M125.55 129.948C124.994 129.942 124.538 130.181 124.527 130.476C124.515 130.774 124.959 131.019 125.515 131.025C126.071 131.031 126.527 130.793 126.538 130.494C126.544 130.199 126.106 129.952 125.55 129.948Z" fill="#222221"/>
<path d="M130.583 125.642C130.03 125.63 129.568 126.105 129.557 126.697C129.551 127.295 129.99 127.783 130.548 127.795C131.101 127.801 131.563 127.331 131.569 126.734C131.58 126.142 131.135 125.654 130.583 125.642Z" fill="#222221"/>
<path d="M127.563 124.565C127.006 124.559 126.549 124.796 126.539 125.095C126.528 125.391 126.97 125.636 127.526 125.642C128.083 125.647 128.54 125.41 128.551 125.112C128.556 124.816 128.115 124.571 127.563 124.565Z" fill="#222221"/>
<path d="M123.52 123.462C123.512 124.061 123.957 124.547 124.506 124.565C125.064 124.574 125.516 124.096 125.532 123.506C125.54 122.907 125.096 122.421 124.538 122.412C123.989 122.395 123.528 122.872 123.52 123.462Z" fill="#222221"/>
<path d="M117.995 122.412C117.723 122.403 117.492 122.643 117.484 122.942C117.484 123.232 117.699 123.48 117.979 123.488C118.258 123.488 118.49 123.258 118.49 122.959C118.498 122.66 118.274 122.42 117.995 122.412Z" fill="#222221"/>
<path d="M122.514 117.575C122.518 117.275 122.299 117.033 122.019 117.029C121.743 117.02 121.512 117.259 121.508 117.555C121.501 117.854 121.724 118.097 122.004 118.105C122.28 118.109 122.511 117.87 122.514 117.575Z" fill="#222221"/>
<path d="M125.017 115.952C125.296 115.958 125.526 115.718 125.532 115.426C125.532 115.128 125.314 114.881 125.036 114.875C124.757 114.875 124.533 115.108 124.526 115.407C124.52 115.699 124.745 115.945 125.017 115.952Z" fill="#222221"/>
<path d="M125.552 112.722C124.997 112.716 124.538 112.953 124.527 113.251C124.515 113.549 124.958 113.792 125.518 113.798C126.073 113.804 126.533 113.567 126.538 113.269C126.549 112.971 126.107 112.725 125.552 112.722Z" fill="#222221"/>
<path d="M123.539 110.568C122.981 110.563 122.52 111.033 122.514 111.631C122.504 112.222 122.944 112.716 123.501 112.721C124.059 112.733 124.515 112.262 124.526 111.665C124.537 111.074 124.092 110.58 123.539 110.568Z" fill="#222221"/>
<path d="M125.533 108.398C125.526 108.988 125.749 109.478 126.028 109.491C126.306 109.505 126.535 109.028 126.538 108.432C126.545 107.835 126.322 107.345 126.043 107.339C125.765 107.325 125.536 107.802 125.533 108.398Z" fill="#222221"/>
<path d="M116.99 106.262C116.713 106.256 116.484 106.495 116.478 106.791C116.472 107.086 116.696 107.332 116.972 107.338C117.249 107.345 117.478 107.105 117.484 106.809C117.49 106.514 117.266 106.268 116.99 106.262Z" fill="#222221"/>
<path d="M124.526 104.637C124.526 104.936 124.746 105.185 125.024 105.185C125.295 105.191 125.527 104.955 125.532 104.656C125.538 104.364 125.318 104.115 125.041 104.109C124.763 104.102 124.532 104.345 124.526 104.637Z" fill="#222221"/>
<path d="M129.064 101.955C128.781 101.955 128.556 102.189 128.551 102.485C128.546 102.781 128.766 103.026 129.043 103.032C129.321 103.037 129.552 102.797 129.557 102.502C129.562 102.206 129.342 101.961 129.064 101.955Z" fill="#222221"/>
<path d="M118.505 98.7253C117.953 98.7148 117.494 99.1862 117.484 99.7834C117.474 100.375 117.919 100.868 118.47 100.878C119.027 100.889 119.486 100.412 119.496 99.8201C119.506 99.2229 119.061 98.7357 118.505 98.7253Z" fill="#222221"/>
<path d="M114.978 94.4187C114.701 94.4058 114.472 94.8778 114.466 95.4726C114.463 96.0674 114.683 96.5588 114.96 96.5717C115.237 96.5782 115.466 96.1062 115.472 95.5114C115.475 94.9166 115.255 94.4252 114.978 94.4187Z" fill="#222221"/>
<path d="M126.539 93.8735C126.533 94.1689 126.753 94.4118 127.035 94.4183C127.311 94.4249 127.538 94.1886 127.545 93.8932C127.551 93.5912 127.33 93.3484 127.048 93.3418C126.772 93.3418 126.545 93.5781 126.539 93.8735Z" fill="#222221"/>
<path d="M116.99 84.7286C116.71 84.7238 116.483 84.9582 116.478 85.2597C116.474 85.5563 116.692 85.8003 116.972 85.8051C117.248 85.8099 117.475 85.5754 117.484 85.274C117.488 84.9774 117.266 84.7334 116.99 84.7286Z" fill="#222221"/>
<path d="M120.502 82.5578C120.499 83.1469 120.718 83.6378 120.995 83.6518C121.273 83.6588 121.502 83.1889 121.508 82.5928C121.511 81.9967 121.289 81.5058 121.012 81.4988C120.737 81.4848 120.506 81.9617 120.502 82.5578Z" fill="#222221"/>
<path d="M121.508 77.7417C121.512 77.4439 121.294 77.1965 121.016 77.192C120.738 77.1874 120.507 77.4256 120.502 77.7234C120.498 78.0165 120.721 78.2639 120.999 78.2685C121.277 78.2731 121.504 78.0349 121.508 77.7417Z" fill="#222221"/>
<path d="M119.001 75.0388C118.724 75.031 118.49 75.265 118.49 75.5614C118.483 75.8656 118.709 76.1074 118.986 76.1152C119.263 76.1152 119.489 75.8812 119.496 75.5848C119.503 75.2884 119.277 75.0388 119.001 75.0388Z" fill="#222221"/>
<path d="M114.962 75.0385C115.237 75.0433 115.467 74.8068 115.472 74.5123C115.476 74.213 115.255 73.9716 114.976 73.962C114.7 73.9572 114.47 74.1937 114.466 74.493C114.461 74.7875 114.682 75.0337 114.962 75.0385Z" fill="#222221"/>
<path d="M114.96 70.7318C115.239 70.738 115.472 70.5016 115.472 70.2029C115.478 69.9043 115.257 69.6616 114.978 69.6554C114.704 69.6492 114.472 69.8856 114.466 70.1843C114.46 70.4829 114.687 70.7256 114.96 70.7318Z" fill="#222221"/>
<path d="M118.474 66.4252C119.028 66.4318 119.49 65.9643 119.496 65.3651C119.508 64.7725 119.065 64.2852 118.511 64.272C117.952 64.2655 117.496 64.7396 117.484 65.3322C117.478 65.9248 117.921 66.4121 118.474 66.4252Z" fill="#222221"/>
<path d="M115.966 63.1952C116.244 63.2 116.473 62.9646 116.478 62.6666C116.482 62.3686 116.262 62.1235 115.984 62.1187C115.706 62.1139 115.476 62.3494 115.472 62.6474C115.468 62.9453 115.688 63.1904 115.966 63.1952Z" fill="#222221"/>
<path d="M119.496 55.1118C119.49 55.4107 119.712 55.6552 119.991 55.6585C120.267 55.6653 120.499 55.4276 120.502 55.1322C120.508 54.8334 120.286 54.5889 120.007 54.5821C119.731 54.5787 119.499 54.8164 119.496 55.1118Z" fill="#222221"/>
<path d="M121.487 52.4285C122.043 52.4398 122.504 51.9676 122.514 51.3717C122.52 50.7759 122.079 50.2812 121.524 50.2756C120.969 50.2643 120.508 50.7365 120.502 51.3324C120.492 51.9282 120.932 52.4173 121.487 52.4285Z" fill="#222221"/>
<path d="M118.983 51.352C119.263 51.3592 119.493 50.8824 119.496 50.29C119.5 49.6975 119.28 49.2063 119 49.1991C118.723 49.1846 118.494 49.6614 118.49 50.2538C118.484 50.8463 118.706 51.3375 118.983 51.352Z" fill="#222221"/>
<mask id="mask5_74_4" style="mask-type:luminance" maskUnits="userSpaceOnUse" x="132" y="18" width="13" height="11">
<path d="M132.438 18.3032H144.04V28.82H132.438V18.3032Z" fill="white"/>
</mask>
<g mask="url(#mask5_74_4)">
<path d="M139.49 28.6654C139.49 28.5509 139.457 28.516 139.383 28.5509C139.304 28.5808 139.281 28.5509 139.299 28.4314C139.318 28.3069 139.373 28.2671 139.606 28.2372C139.764 28.2123 139.927 28.1575 139.968 28.1177C140.108 27.9683 140.308 26.5491 140.192 26.5491C140.173 26.5491 140.029 26.6786 139.871 26.8379C139.717 26.9973 139.508 27.1716 139.406 27.2263C139.243 27.311 139.085 27.5201 139.085 27.6347C139.085 27.6596 139.16 27.6745 139.253 27.6745C139.42 27.6745 139.55 27.8438 139.462 27.9384C139.434 27.9683 139.318 27.9484 139.201 27.8986C139.006 27.8239 138.969 27.8289 138.871 27.9583C138.811 28.038 138.741 28.1376 138.723 28.1874C138.699 28.2571 138.676 28.2571 138.63 28.1824C138.597 28.1326 138.527 28.1027 138.476 28.1127C138.421 28.1227 138.369 28.0679 138.36 27.9783C138.342 27.8538 138.402 27.789 138.658 27.6546C139.09 27.4255 139.267 27.0919 139.299 26.4695L139.318 25.9964L138.95 25.5482C138.686 25.2246 138.472 25.0403 138.193 24.9009C137.835 24.7266 137.784 24.7167 137.551 24.8013C137.412 24.8511 137.282 24.9258 137.254 24.9656C137.221 25.0104 137.175 25.0005 137.124 24.9457C137.059 24.876 137.063 24.8063 137.156 24.6121C137.217 24.4727 137.268 24.2984 137.268 24.2287C137.268 23.9697 137.579 23.8004 138.067 23.8004H138.514L138.225 23.646C138.067 23.5614 137.798 23.3373 137.63 23.1531C137.463 22.9688 137.3 22.8145 137.272 22.8145C137.245 22.8145 137.128 22.7298 137.017 22.6203C136.905 22.5157 136.733 22.3663 136.631 22.2866C136.529 22.2119 136.352 22.0526 136.236 21.9381C136.12 21.8186 135.896 21.6393 135.738 21.5347C135.58 21.4252 135.45 21.3106 135.45 21.2758C135.45 21.2409 135.367 21.1961 135.269 21.1712C135.167 21.1513 134.916 21.0218 134.711 20.8874C134.507 20.7529 134.121 20.5288 133.856 20.3844C133.586 20.24 133.368 20.0807 133.368 20.0259C133.368 19.9761 133.252 19.9014 133.117 19.8616C132.447 19.6674 132.578 19.5329 133.335 19.6275C133.809 19.6873 134.037 19.762 134.618 20.0608C135.004 20.255 135.464 20.5189 135.632 20.6434C135.804 20.7629 136.166 20.9969 136.436 21.1513C136.924 21.4401 137.361 21.7737 138.983 23.1033C139.913 23.8651 140.089 23.9598 140.498 23.9299C140.768 23.91 140.796 23.89 140.856 23.661C140.898 23.4817 140.884 23.2377 140.796 22.7696C140.684 22.1621 140.684 22.1024 140.791 21.6542C141.033 20.6434 141.735 19.1595 142.242 18.5968C142.474 18.3329 142.716 18.303 142.716 18.537C142.72 18.6217 142.744 18.7412 142.781 18.796C142.813 18.8507 142.818 18.9553 142.79 19.035C142.725 19.2142 142.846 19.4881 143.004 19.5329C143.097 19.5578 143.115 19.6076 143.083 19.7471C143.05 19.8666 143.064 19.9263 143.12 19.9263C143.176 19.9263 143.19 19.996 143.162 20.1404C143.129 20.3147 143.143 20.3496 143.255 20.3496C143.343 20.3496 143.39 20.3994 143.39 20.489C143.39 20.5687 143.432 20.6334 143.483 20.6334C143.636 20.6334 143.743 20.8177 143.669 20.9621C143.617 21.0567 143.636 21.1015 143.748 21.1613C143.896 21.2459 143.906 21.2808 143.822 21.4949C143.794 21.5795 143.813 21.6194 143.887 21.6194C144.013 21.6194 144.031 21.8335 143.91 21.963C143.845 22.0377 143.845 22.0675 143.91 22.0924C144.031 22.1372 144.013 22.3215 143.878 22.4808C143.766 22.6103 143.766 22.6203 143.878 22.685C144.022 22.7696 144.027 22.9788 143.892 23.0983C143.822 23.163 143.799 23.2527 143.827 23.3871C143.859 23.5465 143.836 23.5963 143.692 23.6809C143.534 23.7656 143.525 23.7855 143.617 23.8701C143.729 23.9647 143.766 24.154 143.669 24.154C143.641 24.154 143.576 24.2635 143.525 24.4029C143.469 24.5473 143.385 24.6469 143.315 24.6469C143.255 24.6469 143.185 24.6918 143.167 24.7415C143.143 24.8113 143.046 24.8212 142.771 24.7864C142.395 24.7366 142.111 24.8162 142.111 24.9706C142.111 25.0851 142.404 25.4237 142.497 25.4237C142.534 25.4237 142.586 25.4686 142.604 25.5283C142.627 25.5881 142.692 25.6329 142.748 25.6329C142.804 25.6329 142.851 25.6628 142.851 25.7026C142.851 25.7424 142.916 25.7723 142.99 25.7723C143.069 25.7723 143.176 25.8221 143.232 25.8819C143.287 25.9366 143.399 25.9864 143.483 25.9864C143.566 25.9864 143.692 26.0313 143.762 26.086C143.887 26.1806 143.887 26.1856 143.701 26.2354C143.422 26.3101 142.809 26.2354 142.348 26.0711C142.014 25.9516 141.925 25.9416 141.842 26.0163C141.786 26.0661 141.568 26.1906 141.358 26.2852C141.075 26.4197 140.963 26.5143 140.931 26.6437C140.907 26.7433 140.903 26.8529 140.926 26.8877C140.986 26.9923 140.577 27.794 140.396 27.9185C140.308 27.9783 140.196 28.0978 140.154 28.1824C140.089 28.3119 140.099 28.3517 140.229 28.4513C140.336 28.536 140.368 28.6156 140.336 28.7003C140.294 28.8198 140.275 28.8148 140.113 28.6455L139.936 28.4613L139.49 28.8198V28.6654Z" fill="black"/>
</g>
<path d="M72.3238 147.896C70.3762 147.896 68.461 147.697 66.5784 147.299C64.7051 146.891 63.0456 146.183 61.5953 145.188C60.1543 144.182 59.1316 142.807 58.5273 141.064C57.9184 139.327 57.9044 137.141 58.4902 134.511L64.4029 135.467C63.8312 137.529 63.6592 139.207 63.8823 140.507C64.1054 141.796 64.6261 142.797 65.4442 143.514C66.2623 144.231 67.285 144.729 68.5121 145.008C69.7486 145.287 71.0502 145.427 72.4168 145.427C74.834 145.427 76.5446 144.958 77.5487 144.012C78.5527 143.071 79.0548 141.772 79.0548 140.108C79.0548 138.744 78.6736 137.693 77.9205 136.961C77.1629 136.234 76.1541 135.637 74.8898 135.169C73.6254 134.691 72.2216 134.173 70.6876 133.615C69.2234 133.072 67.8056 132.535 66.4297 132.002C65.0537 131.459 63.8126 130.822 62.7109 130.09C61.6185 129.363 60.7446 128.451 60.0892 127.361C59.4431 126.275 59.1223 124.931 59.1223 123.337C59.1223 121.296 59.6708 119.647 60.7772 118.398C61.8928 117.153 63.3803 116.236 65.2397 115.649C67.1083 115.066 69.2001 114.772 71.5057 114.772C73.2907 114.772 75.006 114.982 76.6562 115.39C78.3157 115.788 79.7613 116.436 80.9885 117.322C82.2157 118.213 83.071 119.389 83.5544 120.848C84.0379 122.312 83.9728 124.114 83.3685 126.265L77.4557 125.289C78.2459 123.273 78.4784 121.679 78.1437 120.509C77.809 119.344 77.0559 118.507 75.8938 117.999C74.7271 117.496 73.2768 117.242 71.5429 117.242C69.2745 117.242 67.6196 117.676 66.5784 118.537C65.5465 119.403 65.0351 120.599 65.0351 122.122C65.0351 123.198 65.3512 124.089 65.9834 124.791C66.6249 125.483 67.4709 126.056 68.5121 126.504C69.5627 126.957 70.7108 127.416 71.952 127.879C73.5882 128.466 75.1873 129.044 76.7491 129.612C78.311 130.169 79.7055 130.827 80.9327 131.583C82.1692 132.33 83.15 133.276 83.8705 134.432C84.6003 135.587 84.9675 137.041 84.9675 138.794C84.9675 141.134 84.3818 142.957 83.2197 144.271C82.053 145.586 80.5097 146.522 78.5899 147.08C76.6794 147.623 74.5923 147.896 72.3238 147.896Z" fill="black"/>
<path d="M100.514 147.896C97.6368 147.896 95.2894 147.299 93.4672 146.104C91.645 144.899 90.297 143.33 89.4324 141.403C88.5771 139.466 88.1494 137.41 88.1494 135.229C88.1494 133.052 88.5771 131.001 89.4324 129.074C90.297 127.137 91.645 125.568 93.4672 124.373C95.2894 123.168 97.6368 122.561 100.514 122.561C103.401 122.561 105.744 123.168 107.543 124.373C109.351 125.568 110.69 127.137 111.559 129.074C112.423 131.001 112.86 133.052 112.86 135.229C112.86 137.41 112.423 139.466 111.559 141.403C110.69 143.33 109.351 144.899 107.543 146.104C105.744 147.299 103.401 147.896 100.514 147.896ZM101.611 145.367C103.768 145.118 105.265 144.047 106.111 142.16C106.966 140.278 107.227 137.738 106.892 134.551C106.594 131.364 105.837 128.929 104.623 127.241C103.406 125.558 101.658 124.841 99.38 125.09C97.2603 125.319 95.7728 126.385 94.9175 128.297C94.0715 130.199 93.8019 132.739 94.0994 135.926C94.4341 139.103 95.2011 141.523 96.405 143.196C97.6043 144.869 99.3428 145.596 101.611 145.367Z" fill="black"/>
<path d="M126.549 147.896C124.178 147.896 122.291 147.089 120.878 145.466C119.464 143.848 118.758 141.457 118.758 138.295V128.894C118.758 127.236 118.581 126.101 118.237 125.488C117.889 124.866 117.308 124.552 116.49 124.552V123.038H126.958V124.552C126.14 124.552 125.549 124.866 125.191 125.488C124.843 126.101 124.671 127.236 124.671 128.894V140.148C124.671 141.741 124.95 143.026 125.507 143.992C126.075 144.948 127.032 145.426 128.371 145.426C129.672 145.426 130.769 145.038 131.662 144.251C132.554 143.469 133.27 142.428 133.819 141.124C134.363 139.824 134.767 138.365 135.027 136.742C135.288 135.123 135.418 133.485 135.418 131.822V128.894C135.418 127.236 135.241 126.101 134.897 125.488C134.549 124.866 133.958 124.552 133.131 124.552V123.038H143.599V124.552C142.818 124.552 142.242 124.866 141.87 125.488C141.507 126.101 141.331 127.236 141.331 128.894V141.562C141.331 143.225 141.507 144.366 141.87 144.988C142.242 145.6 142.818 145.904 143.599 145.904V147.418H140.55C139.369 147.418 138.402 147.338 137.649 147.179C136.891 147.02 136.329 146.641 135.957 146.044C135.595 145.436 135.418 144.48 135.418 143.175V140.646H135.046C134.535 142.717 133.605 144.445 132.257 145.825C130.904 147.209 129.003 147.896 126.549 147.896Z" fill="black"/>
<path d="M147.24 147.418V145.904C148.058 145.904 148.639 145.601 148.988 144.988C149.332 144.366 149.509 143.225 149.509 141.562V118.178C149.509 116.52 149.332 115.385 148.988 114.772C148.639 114.15 148.058 113.836 147.24 113.836V112.322H150.29C151.466 112.322 152.433 112.412 153.19 112.581C153.957 112.741 154.52 113.134 154.882 113.756C155.24 114.369 155.421 115.34 155.421 116.664V141.562C155.421 143.225 155.593 144.366 155.942 144.988C156.3 145.601 156.89 145.904 157.708 145.904V147.418H147.24Z" fill="black"/>
<path d="M173.084 147.896C170.23 147.896 167.901 147.369 166.093 146.303C164.28 145.227 162.96 143.773 162.133 141.941C161.301 140.099 160.887 138.037 160.887 135.766C160.887 133.008 161.426 130.642 162.505 128.675C163.583 126.713 165.061 125.205 166.949 124.154C168.845 123.093 171.039 122.561 173.531 122.561C176.292 122.561 178.532 123.173 180.243 124.393C181.954 125.618 182.809 127.341 182.809 129.572C182.809 131.076 182.46 132.32 181.768 133.316C181.07 134.302 180.15 135.079 178.997 135.647C177.844 136.219 176.561 136.613 175.148 136.822C173.735 137.036 172.294 137.091 170.835 136.981C169.384 136.862 168.036 136.638 166.8 136.304V136.802C166.823 138.386 167.065 139.825 167.525 141.124C167.98 142.429 168.659 143.47 169.552 144.251C170.444 145.038 171.56 145.427 172.898 145.427C173.74 145.427 174.502 145.257 175.186 144.909C175.878 144.565 176.399 143.968 176.747 143.116C177.091 142.255 177.161 141.06 176.952 139.531L182.865 138.216C183.013 139.969 182.725 141.582 182.009 143.056C181.303 144.53 180.196 145.705 178.7 146.582C177.198 147.458 175.325 147.896 173.084 147.896ZM166.893 133.814C170.077 134.626 172.536 134.611 174.274 133.774C176.022 132.928 176.896 131.544 176.896 129.632C176.896 128.173 176.566 127.042 175.911 126.245C175.265 125.449 174.228 125.05 172.806 125.05C170.858 125.05 169.421 125.817 168.492 127.341C167.571 128.87 167.041 131.026 166.893 133.814Z" fill="black"/>
<path d="M197.104 147.896C195.18 147.896 193.423 147.418 191.824 146.462C190.234 145.506 188.96 144.087 187.993 142.2C187.026 140.317 186.543 137.992 186.543 135.228C186.543 132.44 187.026 130.109 187.993 128.237C188.96 126.365 190.234 124.95 191.824 123.994C193.423 123.038 195.18 122.56 197.104 122.56C198.973 122.56 200.683 122.998 202.236 123.875C203.784 124.751 205.03 126.021 205.973 127.679H206.327V118.178C206.327 116.52 206.15 115.385 205.806 114.772C205.457 114.15 204.876 113.836 204.058 113.836V112.322H207.108C208.321 112.322 209.302 112.412 210.045 112.581C210.789 112.741 211.338 113.134 211.7 113.756C212.058 114.369 212.239 115.34 212.239 116.664V141.562C212.239 143.225 212.416 144.366 212.779 144.988C213.151 145.601 213.732 145.904 214.526 145.904V147.418H211.477C209.715 147.418 208.414 147.239 207.572 146.88C206.74 146.522 206.327 145.546 206.327 143.952V142.797H205.973C205.03 144.445 203.784 145.705 202.236 146.582C200.683 147.458 198.973 147.896 197.104 147.896ZM199.149 145.426C201.39 145.426 203.091 144.52 204.244 142.698C205.397 140.88 205.973 138.39 205.973 135.228C205.973 132.081 205.397 129.601 204.244 127.779C203.091 125.961 201.39 125.05 199.149 125.05C197.016 125.05 195.417 125.946 194.352 127.739C193.297 129.522 192.772 132.016 192.772 135.228C192.772 138.455 193.297 140.965 194.352 142.757C195.417 144.54 197.016 145.426 199.149 145.426Z" fill="black"/>
</svg>
